<?xml version="1.0" encoding="UTF-8"?>
<!DOCTYPE svg PUBLIC "-//W3C//DTD SVG 1.1//EN"
    "http://www.w3.org/Graphics/SVG/1.1/DTD/svg11.dtd">
<svg xmlns="http://www.w3.org/2000/svg" xmlns:xlink="http://www.w3.org/1999/xlink" version="1.1" width="1100.0" height="1209.9999999999998" font-size="1" viewBox="0 0 1100 1210"><g><g transform="matrix(1099.9999999999998,0.0,0.0,1099.9999999999998,54.999999999999964,1209.9999999999998)"><g stroke="rgb(0,0,0)" stroke-opacity="1.0" fill="rgb(0,0,0)" fill-opacity="0.0" stroke-width="1.0e-2" stroke-linecap="butt" stroke-linejoin="miter" font-size="1.0em" stroke-miterlimit="10.0"><path d="M 0.9500000000000004,-6.938893903907228e-18 l -1.1102230246251566e-17,-0.1 h -0.1 l -1.1102230246251566e-17,0.1 h 0.10000000000000003 Z" /></g></g><g transform="matrix(1099.9999999999998,0.0,0.0,1099.9999999999998,54.999999999999964,1209.9999999999998)"><g stroke="rgb(0,0,0)" stroke-opacity="1.0" fill="rgb(0,0,0)" fill-opacity="1.0" stroke-width="1.0e-2" stroke-linecap="butt" stroke-linejoin="miter" font-size="1.0em" stroke-miterlimit="10.0"><text transform="matrix(2.0e-2,0.0,0.0,2.0e-2,0.9000000000000004,-5.000000000000001e-2)" dominant-baseline="middle" text-anchor="middle" stroke="none">3.81%</text></g></g><g transform="matrix(1099.9999999999998,0.0,0.0,1099.9999999999998,54.999999999999964,1209.9999999999998)"><g stroke="rgb(0,0,0)" stroke-opacity="1.0" fill="rgb(0,0,0)" fill-opacity="0.0" stroke-width="1.0e-2" stroke-linecap="butt" stroke-linejoin="miter" font-size="1.0em" stroke-miterlimit="10.0"><path d="M 0.9500000000000004,-0.1 l -1.1102230246251566e-17,-7.751937984496124e-3 h -0.1 l -1.1102230246251566e-17,7.751937984496124e-3 h 0.10000000000000003 Z" /></g></g><g transform="matrix(1099.9999999999998,0.0,0.0,1099.9999999999998,54.999999999999964,1209.9999999999998)"><g stroke="rgb(0,0,0)" stroke-opacity="1.0" fill="rgb(0,0,0)" fill-opacity="0.0" stroke-width="1.0e-2" stroke-linecap="butt" stroke-linejoin="miter" font-size="1.0em" stroke-miterlimit="10.0"><path d="M 0.8500000000000003,0.0 l -1.1102230246251566e-17,-0.1 h -0.1 l -1.1102230246251566e-17,0.1 h 0.10000000000000003 Z" /></g></g><g transform="matrix(1099.9999999999998,0.0,0.0,1099.9999999999998,54.999999999999964,1209.9999999999998)"><g stroke="rgb(0,0,0)" stroke-opacity="1.0" fill="rgb(0,0,0)" fill-opacity="1.0" stroke-width="1.0e-2" stroke-linecap="butt" stroke-linejoin="miter" font-size="1.0em" stroke-miterlimit="10.0"><text transform="matrix(2.0e-2,0.0,0.0,2.0e-2,0.8000000000000003,-5.0e-2)" dominant-baseline="middle" text-anchor="middle" stroke="none">3.43%</text></g></g><g transform="matrix(1099.9999999999998,0.0,0.0,1099.9999999999998,54.999999999999964,1209.9999999999998)"><g stroke="rgb(0,0,0)" stroke-opacity="1.0" fill="rgb(0,0,0)" fill-opacity="0.0" stroke-width="1.0e-2" stroke-linecap="butt" stroke-linejoin="miter" font-size="1.0em" stroke-miterlimit="10.0"><path d="M 0.8500000000000003,-0.1 l -1.1102230246251566e-17,-1.937984496124031e-2 h -0.1 l -1.1102230246251566e-17,1.937984496124031e-2 h 0.10000000000000003 Z" /></g></g><g transform="matrix(1099.9999999999998,0.0,0.0,1099.9999999999998,54.999999999999964,1209.9999999999998)"><g stroke="rgb(0,0,0)" stroke-opacity="1.0" fill="rgb(0,0,0)" fill-opacity="0.0" stroke-width="1.0e-2" stroke-linecap="butt" stroke-linejoin="miter" font-size="1.0em" stroke-miterlimit="10.0"><path d="M 0.7500000000000002,1.3877787807814457e-17 l -1.1102230246251566e-17,-0.1 h -0.1 l -1.1102230246251566e-17,0.1 h 0.10000000000000003 Z" /></g></g><g transform="matrix(1099.9999999999998,0.0,0.0,1099.9999999999998,54.999999999999964,1209.9999999999998)"><g stroke="rgb(0,0,0)" stroke-opacity="1.0" fill="rgb(0,0,0)" fill-opacity="1.0" stroke-width="1.0e-2" stroke-linecap="butt" stroke-linejoin="miter" font-size="1.0em" stroke-miterlimit="10.0"><text transform="matrix(2.0e-2,0.0,0.0,2.0e-2,0.7000000000000002,-4.999999999999999e-2)" dominant-baseline="middle" text-anchor="middle" stroke="none">3.05%</text></g></g><g transform="matrix(1099.9999999999998,0.0,0.0,1099.9999999999998,54.999999999999964,1209.9999999999998)"><g stroke="rgb(0,0,0)" stroke-opacity="1.0" fill="rgb(0,0,0)" fill-opacity="0.0" stroke-width="1.0e-2" stroke-linecap="butt" stroke-linejoin="miter" font-size="1.0em" stroke-miterlimit="10.0"><path d="M 0.7500000000000002,-9.999999999999998e-2 l -1.1102230246251566e-17,-7.364341085271318e-2 h -0.1 l -1.1102230246251566e-17,7.364341085271318e-2 h 0.10000000000000003 Z" /></g></g><g transform="matrix(1099.9999999999998,0.0,0.0,1099.9999999999998,54.999999999999964,1209.9999999999998)"><g stroke="rgb(0,0,0)" stroke-opacity="1.0" fill="rgb(0,0,0)" fill-opacity="0.0" stroke-width="1.0e-2" stroke-linecap="butt" stroke-linejoin="miter" font-size="1.0em" stroke-miterlimit="10.0"><path d="M 0.6500000000000002,-1.3877787807814457e-17 l -1.1102230246251566e-17,-0.1 h -0.1 l -1.1102230246251566e-17,0.1 h 0.10000000000000003 Z" /></g></g><g transform="matrix(1099.9999999999998,0.0,0.0,1099.9999999999998,54.999999999999964,1209.9999999999998)"><g stroke="rgb(0,0,0)" stroke-opacity="1.0" fill="rgb(0,0,0)" fill-opacity="1.0" stroke-width="1.0e-2" stroke-linecap="butt" stroke-linejoin="miter" font-size="1.0em" stroke-miterlimit="10.0"><text transform="matrix(2.0e-2,0.0,0.0,2.0e-2,0.6000000000000002,-5.000000000000002e-2)" dominant-baseline="middle" text-anchor="middle" stroke="none">2.67%</text></g></g><g transform="matrix(1099.9999999999998,0.0,0.0,1099.9999999999998,54.999999999999964,1209.9999999999998)"><g stroke="rgb(0,0,0)" stroke-opacity="1.0" fill="rgb(0,0,0)" fill-opacity="0.0" stroke-width="1.0e-2" stroke-linecap="butt" stroke-linejoin="miter" font-size="1.0em" stroke-miterlimit="10.0"><path d="M 0.6500000000000002,-0.10000000000000003 l -1.1102230246251566e-17,-0.29457364341085274 h -0.1 l -1.1102230246251566e-17,0.29457364341085274 h 0.10000000000000003 Z" /></g></g><g transform="matrix(1099.9999999999998,0.0,0.0,1099.9999999999998,54.999999999999964,1209.9999999999998)"><g stroke="rgb(0,0,0)" stroke-opacity="1.0" fill="rgb(0,0,0)" fill-opacity="0.0" stroke-width="1.0e-2" stroke-linecap="butt" stroke-linejoin="miter" font-size="1.0em" stroke-miterlimit="10.0"><path d="M 0.5500000000000003,1.3877787807814457e-17 l -1.1102230246251566e-17,-0.1 h -0.1 l -1.1102230246251566e-17,0.1 h 0.10000000000000003 Z" /></g></g><g transform="matrix(1099.9999999999998,0.0,0.0,1099.9999999999998,54.999999999999964,1209.9999999999998)"><g stroke="rgb(0,0,0)" stroke-opacity="1.0" fill="rgb(0,0,0)" fill-opacity="1.0" stroke-width="1.0e-2" stroke-linecap="butt" stroke-linejoin="miter" font-size="1.0em" stroke-miterlimit="10.0"><text transform="matrix(2.0e-2,0.0,0.0,2.0e-2,0.5000000000000002,-4.999999999999999e-2)" dominant-baseline="middle" text-anchor="middle" stroke="none">2.29%</text></g></g><g transform="matrix(1099.9999999999998,0.0,0.0,1099.9999999999998,54.999999999999964,1209.9999999999998)"><g stroke="rgb(0,0,0)" stroke-opacity="1.0" fill="rgb(0,0,0)" fill-opacity="0.0" stroke-width="1.0e-2" stroke-linecap="butt" stroke-linejoin="miter" font-size="1.0em" stroke-miterlimit="10.0"><path d="M 0.5500000000000003,-9.999999999999998e-2 l -1.1102230246251566e-17,-0.5387596899224806 h -0.1 l -1.1102230246251566e-17,0.5387596899224806 h 0.10000000000000003 Z" /></g></g><g transform="matrix(1099.9999999999998,0.0,0.0,1099.9999999999998,54.999999999999964,1209.9999999999998)"><g stroke="rgb(0,0,0)" stroke-opacity="1.0" fill="rgb(0,0,0)" fill-opacity="0.0" stroke-width="1.0e-2" stroke-linecap="butt" stroke-linejoin="miter" font-size="1.0em" stroke-miterlimit="10.0"><path d="M 0.4500000000000002,-4.163336342344337e-17 l -1.1102230246251566e-17,-0.1 h -0.1 l -1.1102230246251566e-17,0.1 h 0.10000000000000003 Z" /></g></g><g transform="matrix(1099.9999999999998,0.0,0.0,1099.9999999999998,54.999999999999964,1209.9999999999998)"><g stroke="rgb(0,0,0)" stroke-opacity="1.0" fill="rgb(0,0,0)" fill-opacity="1.0" stroke-width="1.0e-2" stroke-linecap="butt" stroke-linejoin="miter" font-size="1.0em" stroke-miterlimit="10.0"><text transform="matrix(2.0e-2,0.0,0.0,2.0e-2,0.40000000000000013,-5.0000000000000044e-2)" dominant-baseline="middle" text-anchor="middle" stroke="none">1.91%</text></g></g><g transform="matrix(1099.9999999999998,0.0,0.0,1099.9999999999998,54.999999999999964,1209.9999999999998)"><g stroke="rgb(0,0,0)" stroke-opacity="1.0" fill="rgb(0,0,0)" fill-opacity="0.0" stroke-width="1.0e-2" stroke-linecap="butt" stroke-linejoin="miter" font-size="1.0em" stroke-miterlimit="10.0"><path d="M 0.4500000000000002,-0.10000000000000009 l -1.1102230246251566e-17,-0.9961240310077519 h -0.1 l -1.1102230246251566e-17,0.9961240310077519 h 0.10000000000000003 Z" /></g></g><g transform="matrix(1099.9999999999998,0.0,0.0,1099.9999999999998,54.999999999999964,1209.9999999999998)"><g stroke="rgb(0,0,0)" stroke-opacity="1.0" fill="rgb(0,0,0)" fill-opacity="0.0" stroke-width="1.0e-2" stroke-linecap="butt" stroke-linejoin="miter" font-size="1.0em" stroke-miterlimit="10.0"><path d="M 0.3500000000000001,-4.163336342344337e-17 l -1.1102230246251566e-17,-0.1 h -0.1 l -1.1102230246251566e-17,0.1 h 0.10000000000000003 Z" /></g></g><g transform="matrix(1099.9999999999998,0.0,0.0,1099.9999999999998,54.999999999999964,1209.9999999999998)"><g stroke="rgb(0,0,0)" stroke-opacity="1.0" fill="rgb(0,0,0)" fill-opacity="1.0" stroke-width="1.0e-2" stroke-linecap="butt" stroke-linejoin="miter" font-size="1.0em" stroke-miterlimit="10.0"><text transform="matrix(2.0e-2,0.0,0.0,2.0e-2,0.3000000000000001,-5.0000000000000044e-2)" dominant-baseline="middle" text-anchor="middle" stroke="none">1.53%</text></g></g><g transform="matrix(1099.9999999999998,0.0,0.0,1099.9999999999998,54.999999999999964,1209.9999999999998)"><g stroke="rgb(0,0,0)" stroke-opacity="1.0" fill="rgb(0,0,0)" fill-opacity="0.0" stroke-width="1.0e-2" stroke-linecap="butt" stroke-linejoin="miter" font-size="1.0em" stroke-miterlimit="10.0"><path d="M 0.3500000000000001,-0.10000000000000009 l -1.1102230246251566e-17,-1.0 h -0.1 l -1.1102230246251566e-17,1.0 h 0.10000000000000003 Z" /></g></g><g transform="matrix(1099.9999999999998,0.0,0.0,1099.9999999999998,54.999999999999964,1209.9999999999998)"><g stroke="rgb(0,0,0)" stroke-opacity="1.0" fill="rgb(0,0,0)" fill-opacity="0.0" stroke-width="1.0e-2" stroke-linecap="butt" stroke-linejoin="miter" font-size="1.0em" stroke-miterlimit="10.0"><path d="M 0.2500000000000001,1.3877787807814457e-17 l -1.1102230246251566e-17,-0.1 h -0.1 l -1.1102230246251566e-17,0.1 h 0.10000000000000003 Z" /></g></g><g transform="matrix(1099.9999999999998,0.0,0.0,1099.9999999999998,54.999999999999964,1209.9999999999998)"><g stroke="rgb(0,0,0)" stroke-opacity="1.0" fill="rgb(0,0,0)" fill-opacity="1.0" stroke-width="1.0e-2" stroke-linecap="butt" stroke-linejoin="miter" font-size="1.0em" stroke-miterlimit="10.0"><text transform="matrix(2.0e-2,0.0,0.0,2.0e-2,0.20000000000000007,-4.999999999999999e-2)" dominant-baseline="middle" text-anchor="middle" stroke="none">1.15%</text></g></g><g transform="matrix(1099.9999999999998,0.0,0.0,1099.9999999999998,54.999999999999964,1209.9999999999998)"><g stroke="rgb(0,0,0)" stroke-opacity="1.0" fill="rgb(0,0,0)" fill-opacity="0.0" stroke-width="1.0e-2" stroke-linecap="butt" stroke-linejoin="miter" font-size="1.0em" stroke-miterlimit="10.0"><path d="M 0.2500000000000001,-9.999999999999998e-2 l -1.1102230246251566e-17,-0.6550387596899225 h -0.1 l -1.1102230246251566e-17,0.6550387596899225 h 0.10000000000000003 Z" /></g></g><g transform="matrix(1099.9999999999998,0.0,0.0,1099.9999999999998,54.999999999999964,1209.9999999999998)"><g stroke="rgb(0,0,0)" stroke-opacity="1.0" fill="rgb(0,0,0)" fill-opacity="0.0" stroke-width="1.0e-2" stroke-linecap="butt" stroke-linejoin="miter" font-size="1.0em" stroke-miterlimit="10.0"><path d="M 0.15000000000000005,1.3877787807814457e-17 l -1.1102230246251566e-17,-0.1 h -0.1 l -1.1102230246251566e-17,0.1 h 0.10000000000000003 Z" /></g></g><g transform="matrix(1099.9999999999998,0.0,0.0,1099.9999999999998,54.999999999999964,1209.9999999999998)"><g stroke="rgb(0,0,0)" stroke-opacity="1.0" fill="rgb(0,0,0)" fill-opacity="1.0" stroke-width="1.0e-2" stroke-linecap="butt" stroke-linejoin="miter" font-size="1.0em" stroke-miterlimit="10.0"><text transform="matrix(2.0e-2,0.0,0.0,2.0e-2,0.10000000000000003,-4.999999999999999e-2)" dominant-baseline="middle" text-anchor="middle" stroke="none">0.77%</text></g></g><g transform="matrix(1099.9999999999998,0.0,0.0,1099.9999999999998,54.999999999999964,1209.9999999999998)"><g stroke="rgb(0,0,0)" stroke-opacity="1.0" fill="rgb(0,0,0)" fill-opacity="0.0" stroke-width="1.0e-2" stroke-linecap="butt" stroke-linejoin="miter" font-size="1.0em" stroke-miterlimit="10.0"><path d="M 0.15000000000000005,-9.999999999999998e-2 l -1.1102230246251566e-17,-0.25193798449612403 h -0.1 l -1.1102230246251566e-17,0.25193798449612403 h 0.10000000000000003 Z" /></g></g><g transform="matrix(1099.9999999999998,0.0,0.0,1099.9999999999998,54.999999999999964,1209.9999999999998)"><g stroke="rgb(0,0,0)" stroke-opacity="1.0" fill="rgb(0,0,0)" fill-opacity="0.0" stroke-width="1.0e-2" stroke-linecap="butt" stroke-linejoin="miter" font-size="1.0em" stroke-miterlimit="10.0"><path d="M 5.000000000000002e-2,1.3877787807814457e-17 l -1.1102230246251566e-17,-0.1 h -0.1 l -1.1102230246251566e-17,0.1 h 0.10000000000000003 Z" /></g></g><g transform="matrix(1099.9999999999998,0.0,0.0,1099.9999999999998,54.999999999999964,1209.9999999999998)"><g stroke="rgb(0,0,0)" stroke-opacity="1.0" fill="rgb(0,0,0)" fill-opacity="1.0" stroke-width="1.0e-2" stroke-linecap="butt" stroke-linejoin="miter" font-size="1.0em" stroke-miterlimit="10.0"><text transform="matrix(2.0e-2,0.0,0.0,2.0e-2,0.0,-4.999999999999999e-2)" dominant-baseline="middle" text-anchor="middle" stroke="none">0.39%</text></g></g><g transform="matrix(1099.9999999999998,0.0,0.0,1099.9999999999998,54.999999999999964,1209.9999999999998)"><g stroke="rgb(0,0,0)" stroke-opacity="1.0" fill="rgb(0,0,0)" fill-opacity="0.0" stroke-width="1.0e-2" stroke-linecap="butt" stroke-linejoin="miter" font-size="1.0em" stroke-miterlimit="10.0"><path d="M 5.000000000000002e-2,-9.999999999999998e-2 l -1.1102230246251566e-17,-3.875968992248062e-2 h -0.1 l -1.1102230246251566e-17,3.875968992248062e-2 h 0.10000000000000003 Z" /></g></g></g></svg>