<?xml version="1.0" encoding="UTF-8"?>
<!DOCTYPE svg PUBLIC "-//W3C//DTD SVG 1.1//EN"
    "http://www.w3.org/Graphics/SVG/1.1/DTD/svg11.dtd">
<svg xmlns="http://www.w3.org/2000/svg" xmlns:xlink="http://www.w3.org/1999/xlink" version="1.1" width="1100.0" height="600.0" font-size="1" viewBox="0 0 1100 600"><g><g transform="matrix(545.4545454545454,0.0,0.0,545.4545454545454,304.5454545454545,600.0)"><g stroke="rgb(0,0,0)" stroke-opacity="1.0" fill="rgb(0,0,0)" fill-opacity="0.0" stroke-width="1.0e-2" stroke-linecap="butt" stroke-linejoin="miter" font-size="1.0em" stroke-miterlimit="10.0"><path d="M 0.9500000000000004,0.0 l -1.1102230246251566e-17,-0.1 h -0.1 l -1.1102230246251566e-17,0.1 h 0.10000000000000003 Z" /></g></g><g transform="matrix(545.4545454545454,0.0,0.0,545.4545454545454,304.5454545454545,600.0)"><g stroke="rgb(0,0,0)" stroke-opacity="1.0" fill="rgb(0,0,0)" fill-opacity="1.0" stroke-width="1.0e-2" stroke-linecap="butt" stroke-linejoin="miter" font-size="1.0em" stroke-miterlimit="10.0"><text transform="matrix(2.0e-2,0.0,0.0,2.0e-2,0.9000000000000004,-5.0e-2)" dominant-baseline="middle" text-anchor="middle" stroke="none">3.43%</text></g></g><g transform="matrix(545.4545454545454,0.0,0.0,545.4545454545454,304.5454545454545,600.0)"><g stroke="rgb(0,0,0)" stroke-opacity="1.0" fill="rgb(0,0,0)" fill-opacity="0.0" stroke-width="1.0e-2" stroke-linecap="butt" stroke-linejoin="miter" font-size="1.0em" stroke-miterlimit="10.0"><path d="M 0.9500000000000004,-0.1 l -1.1102230246251566e-17,-3.3112582781456956e-2 h -0.1 l -1.1102230246251566e-17,3.3112582781456956e-2 h 0.10000000000000003 Z" /></g></g><g transform="matrix(545.4545454545454,0.0,0.0,545.4545454545454,304.5454545454545,600.0)"><g stroke="rgb(0,0,0)" stroke-opacity="1.0" fill="rgb(0,0,0)" fill-opacity="0.0" stroke-width="1.0e-2" stroke-linecap="butt" stroke-linejoin="miter" font-size="1.0em" stroke-miterlimit="10.0"><path d="M 0.8500000000000003,-1.3877787807814457e-17 l -1.1102230246251566e-17,-0.1 h -0.1 l -1.1102230246251566e-17,0.1 h 0.10000000000000003 Z" /></g></g><g transform="matrix(545.4545454545454,0.0,0.0,545.4545454545454,304.5454545454545,600.0)"><g stroke="rgb(0,0,0)" stroke-opacity="1.0" fill="rgb(0,0,0)" fill-opacity="1.0" stroke-width="1.0e-2" stroke-linecap="butt" stroke-linejoin="miter" font-size="1.0em" stroke-miterlimit="10.0"><text transform="matrix(2.0e-2,0.0,0.0,2.0e-2,0.8000000000000003,-5.000000000000002e-2)" dominant-baseline="middle" text-anchor="middle" stroke="none">3.09%</text></g></g><g transform="matrix(545.4545454545454,0.0,0.0,545.4545454545454,304.5454545454545,600.0)"><g stroke="rgb(0,0,0)" stroke-opacity="1.0" fill="rgb(0,0,0)" fill-opacity="0.0" stroke-width="1.0e-2" stroke-linecap="butt" stroke-linejoin="miter" font-size="1.0em" stroke-miterlimit="10.0"><path d="M 0.8500000000000003,-0.10000000000000002 l -1.1102230246251566e-17,-5.9602649006622516e-2 h -0.1 l -1.1102230246251566e-17,5.9602649006622516e-2 h 0.10000000000000003 Z" /></g></g><g transform="matrix(545.4545454545454,0.0,0.0,545.4545454545454,304.5454545454545,600.0)"><g stroke="rgb(0,0,0)" stroke-opacity="1.0" fill="rgb(0,0,0)" fill-opacity="0.0" stroke-width="1.0e-2" stroke-linecap="butt" stroke-linejoin="miter" font-size="1.0em" stroke-miterlimit="10.0"><path d="M 0.7500000000000002,1.3877787807814457e-17 l -1.1102230246251566e-17,-0.1 h -0.1 l -1.1102230246251566e-17,0.1 h 0.10000000000000003 Z" /></g></g><g transform="matrix(545.4545454545454,0.0,0.0,545.4545454545454,304.5454545454545,600.0)"><g stroke="rgb(0,0,0)" stroke-opacity="1.0" fill="rgb(0,0,0)" fill-opacity="1.0" stroke-width="1.0e-2" stroke-linecap="butt" stroke-linejoin="miter" font-size="1.0em" stroke-miterlimit="10.0"><text transform="matrix(2.0e-2,0.0,0.0,2.0e-2,0.7000000000000002,-4.999999999999999e-2)" dominant-baseline="middle" text-anchor="middle" stroke="none">2.75%</text></g></g><g transform="matrix(545.4545454545454,0.0,0.0,545.4545454545454,304.5454545454545,600.0)"><g stroke="rgb(0,0,0)" stroke-opacity="1.0" fill="rgb(0,0,0)" fill-opacity="0.0" stroke-width="1.0e-2" stroke-linecap="butt" stroke-linejoin="miter" font-size="1.0em" stroke-miterlimit="10.0"><path d="M 0.7500000000000002,-9.999999999999998e-2 l -1.1102230246251566e-17,-0.17218543046357615 h -0.1 l -1.1102230246251566e-17,0.17218543046357615 h 0.10000000000000003 Z" /></g></g><g transform="matrix(545.4545454545454,0.0,0.0,545.4545454545454,304.5454545454545,600.0)"><g stroke="rgb(0,0,0)" stroke-opacity="1.0" fill="rgb(0,0,0)" fill-opacity="0.0" stroke-width="1.0e-2" stroke-linecap="butt" stroke-linejoin="miter" font-size="1.0em" stroke-miterlimit="10.0"><path d="M 0.6500000000000002,0.0 l -1.1102230246251566e-17,-0.1 h -0.1 l -1.1102230246251566e-17,0.1 h 0.10000000000000003 Z" /></g></g><g transform="matrix(545.4545454545454,0.0,0.0,545.4545454545454,304.5454545454545,600.0)"><g stroke="rgb(0,0,0)" stroke-opacity="1.0" fill="rgb(0,0,0)" fill-opacity="1.0" stroke-width="1.0e-2" stroke-linecap="butt" stroke-linejoin="miter" font-size="1.0em" stroke-miterlimit="10.0"><text transform="matrix(2.0e-2,0.0,0.0,2.0e-2,0.6000000000000002,-5.0e-2)" dominant-baseline="middle" text-anchor="middle" stroke="none">2.41%</text></g></g><g transform="matrix(545.4545454545454,0.0,0.0,545.4545454545454,304.5454545454545,600.0)"><g stroke="rgb(0,0,0)" stroke-opacity="1.0" fill="rgb(0,0,0)" fill-opacity="0.0" stroke-width="1.0e-2" stroke-linecap="butt" stroke-linejoin="miter" font-size="1.0em" stroke-miterlimit="10.0"><path d="M 0.6500000000000002,-0.1 l -1.1102230246251566e-17,-0.1390728476821192 h -0.1 l -1.1102230246251566e-17,0.1390728476821192 h 0.10000000000000003 Z" /></g></g><g transform="matrix(545.4545454545454,0.0,0.0,545.4545454545454,304.5454545454545,600.0)"><g stroke="rgb(0,0,0)" stroke-opacity="1.0" fill="rgb(0,0,0)" fill-opacity="0.0" stroke-width="1.0e-2" stroke-linecap="butt" stroke-linejoin="miter" font-size="1.0em" stroke-miterlimit="10.0"><path d="M 0.5500000000000003,1.3877787807814457e-17 l -1.1102230246251566e-17,-0.1 h -0.1 l -1.1102230246251566e-17,0.1 h 0.10000000000000003 Z" /></g></g><g transform="matrix(545.4545454545454,0.0,0.0,545.4545454545454,304.5454545454545,600.0)"><g stroke="rgb(0,0,0)" stroke-opacity="1.0" fill="rgb(0,0,0)" fill-opacity="1.0" stroke-width="1.0e-2" stroke-linecap="butt" stroke-linejoin="miter" font-size="1.0em" stroke-miterlimit="10.0"><text transform="matrix(2.0e-2,0.0,0.0,2.0e-2,0.5000000000000002,-4.999999999999999e-2)" dominant-baseline="middle" text-anchor="middle" stroke="none">2.07%</text></g></g><g transform="matrix(545.4545454545454,0.0,0.0,545.4545454545454,304.5454545454545,600.0)"><g stroke="rgb(0,0,0)" stroke-opacity="1.0" fill="rgb(0,0,0)" fill-opacity="0.0" stroke-width="1.0e-2" stroke-linecap="butt" stroke-linejoin="miter" font-size="1.0em" stroke-miterlimit="10.0"><path d="M 0.5500000000000003,-9.999999999999998e-2 l -1.1102230246251566e-17,-0.6754966887417219 h -0.1 l -1.1102230246251566e-17,0.6754966887417219 h 0.10000000000000003 Z" /></g></g><g transform="matrix(545.4545454545454,0.0,0.0,545.4545454545454,304.5454545454545,600.0)"><g stroke="rgb(0,0,0)" stroke-opacity="1.0" fill="rgb(0,0,0)" fill-opacity="0.0" stroke-width="1.0e-2" stroke-linecap="butt" stroke-linejoin="miter" font-size="1.0em" stroke-miterlimit="10.0"><path d="M 0.4500000000000002,-4.163336342344337e-17 l -1.1102230246251566e-17,-0.1 h -0.1 l -1.1102230246251566e-17,0.1 h 0.10000000000000003 Z" /></g></g><g transform="matrix(545.4545454545454,0.0,0.0,545.4545454545454,304.5454545454545,600.0)"><g stroke="rgb(0,0,0)" stroke-opacity="1.0" fill="rgb(0,0,0)" fill-opacity="1.0" stroke-width="1.0e-2" stroke-linecap="butt" stroke-linejoin="miter" font-size="1.0em" stroke-miterlimit="10.0"><text transform="matrix(2.0e-2,0.0,0.0,2.0e-2,0.40000000000000013,-5.0000000000000044e-2)" dominant-baseline="middle" text-anchor="middle" stroke="none">1.73%</text></g></g><g transform="matrix(545.4545454545454,0.0,0.0,545.4545454545454,304.5454545454545,600.0)"><g stroke="rgb(0,0,0)" stroke-opacity="1.0" fill="rgb(0,0,0)" fill-opacity="0.0" stroke-width="1.0e-2" stroke-linecap="butt" stroke-linejoin="miter" font-size="1.0em" stroke-miterlimit="10.0"><path d="M 0.4500000000000002,-0.10000000000000009 l -1.1102230246251566e-17,-1.0 h -0.1 l -1.1102230246251566e-17,1.0 h 0.10000000000000003 Z" /></g></g><g transform="matrix(545.4545454545454,0.0,0.0,545.4545454545454,304.5454545454545,600.0)"><g stroke="rgb(0,0,0)" stroke-opacity="1.0" fill="rgb(0,0,0)" fill-opacity="0.0" stroke-width="1.0e-2" stroke-linecap="butt" stroke-linejoin="miter" font-size="1.0em" stroke-miterlimit="10.0"><path d="M 0.3500000000000001,1.3877787807814457e-17 l -1.1102230246251566e-17,-0.1 h -0.1 l -1.1102230246251566e-17,0.1 h 0.10000000000000003 Z" /></g></g><g transform="matrix(545.4545454545454,0.0,0.0,545.4545454545454,304.5454545454545,600.0)"><g stroke="rgb(0,0,0)" stroke-opacity="1.0" fill="rgb(0,0,0)" fill-opacity="1.0" stroke-width="1.0e-2" stroke-linecap="butt" stroke-linejoin="miter" font-size="1.0em" stroke-miterlimit="10.0"><text transform="matrix(2.0e-2,0.0,0.0,2.0e-2,0.3000000000000001,-4.999999999999999e-2)" dominant-baseline="middle" text-anchor="middle" stroke="none">1.39%</text></g></g><g transform="matrix(545.4545454545454,0.0,0.0,545.4545454545454,304.5454545454545,600.0)"><g stroke="rgb(0,0,0)" stroke-opacity="1.0" fill="rgb(0,0,0)" fill-opacity="0.0" stroke-width="1.0e-2" stroke-linecap="butt" stroke-linejoin="miter" font-size="1.0em" stroke-miterlimit="10.0"><path d="M 0.3500000000000001,-9.999999999999998e-2 l -1.1102230246251566e-17,-0.41721854304635764 h -0.1 l -1.1102230246251566e-17,0.41721854304635764 h 0.10000000000000003 Z" /></g></g><g transform="matrix(545.4545454545454,0.0,0.0,545.4545454545454,304.5454545454545,600.0)"><g stroke="rgb(0,0,0)" stroke-opacity="1.0" fill="rgb(0,0,0)" fill-opacity="0.0" stroke-width="1.0e-2" stroke-linecap="butt" stroke-linejoin="miter" font-size="1.0em" stroke-miterlimit="10.0"><path d="M 0.2500000000000001,1.3877787807814457e-17 l -1.1102230246251566e-17,-0.1 h -0.1 l -1.1102230246251566e-17,0.1 h 0.10000000000000003 Z" /></g></g><g transform="matrix(545.4545454545454,0.0,0.0,545.4545454545454,304.5454545454545,600.0)"><g stroke="rgb(0,0,0)" stroke-opacity="1.0" fill="rgb(0,0,0)" fill-opacity="1.0" stroke-width="1.0e-2" stroke-linecap="butt" stroke-linejoin="miter" font-size="1.0em" stroke-miterlimit="10.0"><text transform="matrix(2.0e-2,0.0,0.0,2.0e-2,0.20000000000000007,-4.999999999999999e-2)" dominant-baseline="middle" text-anchor="middle" stroke="none">1.05%</text></g></g><g transform="matrix(545.4545454545454,0.0,0.0,545.4545454545454,304.5454545454545,600.0)"><g stroke="rgb(0,0,0)" stroke-opacity="1.0" fill="rgb(0,0,0)" fill-opacity="0.0" stroke-width="1.0e-2" stroke-linecap="butt" stroke-linejoin="miter" font-size="1.0em" stroke-miterlimit="10.0"><path d="M 0.2500000000000001,-9.999999999999998e-2 l -1.1102230246251566e-17,-0.5165562913907285 h -0.1 l -1.1102230246251566e-17,0.5165562913907285 h 0.10000000000000003 Z" /></g></g><g transform="matrix(545.4545454545454,0.0,0.0,545.4545454545454,304.5454545454545,600.0)"><g stroke="rgb(0,0,0)" stroke-opacity="1.0" fill="rgb(0,0,0)" fill-opacity="0.0" stroke-width="1.0e-2" stroke-linecap="butt" stroke-linejoin="miter" font-size="1.0em" stroke-miterlimit="10.0"><path d="M 0.15000000000000005,1.3877787807814457e-17 l -1.1102230246251566e-17,-0.1 h -0.1 l -1.1102230246251566e-17,0.1 h 0.10000000000000003 Z" /></g></g><g transform="matrix(545.4545454545454,0.0,0.0,545.4545454545454,304.5454545454545,600.0)"><g stroke="rgb(0,0,0)" stroke-opacity="1.0" fill="rgb(0,0,0)" fill-opacity="1.0" stroke-width="1.0e-2" stroke-linecap="butt" stroke-linejoin="miter" font-size="1.0em" stroke-miterlimit="10.0"><text transform="matrix(2.0e-2,0.0,0.0,2.0e-2,0.10000000000000003,-4.999999999999999e-2)" dominant-baseline="middle" text-anchor="middle" stroke="none">0.71%</text></g></g><g transform="matrix(545.4545454545454,0.0,0.0,545.4545454545454,304.5454545454545,600.0)"><g stroke="rgb(0,0,0)" stroke-opacity="1.0" fill="rgb(0,0,0)" fill-opacity="0.0" stroke-width="1.0e-2" stroke-linecap="butt" stroke-linejoin="miter" font-size="1.0em" stroke-miterlimit="10.0"><path d="M 0.15000000000000005,-9.999999999999998e-2 l -1.1102230246251566e-17,-0.26490066225165565 h -0.1 l -1.1102230246251566e-17,0.26490066225165565 h 0.10000000000000003 Z" /></g></g><g transform="matrix(545.4545454545454,0.0,0.0,545.4545454545454,304.5454545454545,600.0)"><g stroke="rgb(0,0,0)" stroke-opacity="1.0" fill="rgb(0,0,0)" fill-opacity="0.0" stroke-width="1.0e-2" stroke-linecap="butt" stroke-linejoin="miter" font-size="1.0em" stroke-miterlimit="10.0"><path d="M 5.000000000000002e-2,0.0 l -1.1102230246251566e-17,-0.1 h -0.1 l -1.1102230246251566e-17,0.1 h 0.10000000000000003 Z" /></g></g><g transform="matrix(545.4545454545454,0.0,0.0,545.4545454545454,304.5454545454545,600.0)"><g stroke="rgb(0,0,0)" stroke-opacity="1.0" fill="rgb(0,0,0)" fill-opacity="1.0" stroke-width="1.0e-2" stroke-linecap="butt" stroke-linejoin="miter" font-size="1.0em" stroke-miterlimit="10.0"><text transform="matrix(2.0e-2,0.0,0.0,2.0e-2,0.0,-5.0e-2)" dominant-baseline="middle" text-anchor="middle" stroke="none">0.37%</text></g></g><g transform="matrix(545.4545454545454,0.0,0.0,545.4545454545454,304.5454545454545,600.0)"><g stroke="rgb(0,0,0)" stroke-opacity="1.0" fill="rgb(0,0,0)" fill-opacity="0.0" stroke-width="1.0e-2" stroke-linecap="butt" stroke-linejoin="miter" font-size="1.0em" stroke-miterlimit="10.0"><path d="M 5.000000000000002e-2,-0.1 l -1.1102230246251566e-17,-3.3112582781456956e-2 h -0.1 l -1.1102230246251566e-17,3.3112582781456956e-2 h 0.10000000000000003 Z" /></g></g></g></svg>