<?xml version="1.0" encoding="UTF-8"?>
<!DOCTYPE svg PUBLIC "-//W3C//DTD SVG 1.1//EN"
    "http://www.w3.org/Graphics/SVG/1.1/DTD/svg11.dtd">
<svg xmlns="http://www.w3.org/2000/svg" xmlns:xlink="http://www.w3.org/1999/xlink" version="1.1" width="1100.0" height="600.0" font-size="1" viewBox="0 0 1100 600"><g><g transform="matrix(439.99999999999983,0.0,0.0,439.99999999999983,21.999999999999886,541.9999999999999)"><g stroke="rgb(0,0,0)" stroke-opacity="1.0" fill="rgb(0,0,0)" fill-opacity="0.0" stroke-width="1.0e-2" stroke-linecap="butt" stroke-linejoin="miter" font-size="1.0em" stroke-miterlimit="10.0"><path d="M 2.4500000000000006,0.0 l -1.1102230246251566e-17,-0.1 h -0.1 l -1.1102230246251566e-17,0.1 h 0.10000000000000003 Z" /></g></g><g transform="matrix(439.99999999999983,0.0,0.0,439.99999999999983,21.999999999999886,541.9999999999999)"><g stroke="rgb(0,0,0)" stroke-opacity="1.0" fill="rgb(0,0,0)" fill-opacity="1.0" stroke-width="1.0e-2" stroke-linecap="butt" stroke-linejoin="miter" font-size="1.0em" stroke-miterlimit="10.0"><text transform="matrix(2.0e-2,0.0,0.0,2.0e-2,2.400000000000001,-5.0e-2)" dominant-baseline="middle" text-anchor="middle" stroke="none">74.96%</text></g></g><g transform="matrix(439.99999999999983,0.0,0.0,439.99999999999983,21.999999999999886,541.9999999999999)"><g stroke="rgb(0,0,0)" stroke-opacity="1.0" fill="rgb(0,0,0)" fill-opacity="0.0" stroke-width="1.0e-2" stroke-linecap="butt" stroke-linejoin="miter" font-size="1.0em" stroke-miterlimit="10.0"><path d="M 2.4500000000000006,-0.1 l -1.1102230246251566e-17,-9.074410163339383e-4 h -0.1 l -1.1102230246251566e-17,9.074410163339383e-4 h 0.10000000000000003 Z" /></g></g><g transform="matrix(439.99999999999983,0.0,0.0,439.99999999999983,21.999999999999886,541.9999999999999)"><g stroke="rgb(0,0,0)" stroke-opacity="1.0" fill="rgb(0,0,0)" fill-opacity="0.0" stroke-width="1.0e-2" stroke-linecap="butt" stroke-linejoin="miter" font-size="1.0em" stroke-miterlimit="10.0"><path d="M 2.350000000000001,0.0 l -1.1102230246251566e-17,-0.1 h -0.1 l -1.1102230246251566e-17,0.1 h 0.10000000000000003 Z" /></g></g><g transform="matrix(439.99999999999983,0.0,0.0,439.99999999999983,21.999999999999886,541.9999999999999)"><g stroke="rgb(0,0,0)" stroke-opacity="1.0" fill="rgb(0,0,0)" fill-opacity="1.0" stroke-width="1.0e-2" stroke-linecap="butt" stroke-linejoin="miter" font-size="1.0em" stroke-miterlimit="10.0"><text transform="matrix(2.0e-2,0.0,0.0,2.0e-2,2.300000000000001,-5.0e-2)" dominant-baseline="middle" text-anchor="middle" stroke="none">72.88%</text></g></g><g transform="matrix(439.99999999999983,0.0,0.0,439.99999999999983,21.999999999999886,541.9999999999999)"><g stroke="rgb(0,0,0)" stroke-opacity="1.0" fill="rgb(0,0,0)" fill-opacity="0.0" stroke-width="1.0e-2" stroke-linecap="butt" stroke-linejoin="miter" font-size="1.0em" stroke-miterlimit="10.0"><path d="M 2.350000000000001,-0.1 l -1.1102230246251566e-17,-6.352087114337568e-3 h -0.1 l -1.1102230246251566e-17,6.352087114337568e-3 h 0.10000000000000003 Z" /></g></g><g transform="matrix(439.99999999999983,0.0,0.0,439.99999999999983,21.999999999999886,541.9999999999999)"><g stroke="rgb(0,0,0)" stroke-opacity="1.0" fill="rgb(0,0,0)" fill-opacity="0.0" stroke-width="1.0e-2" stroke-linecap="butt" stroke-linejoin="miter" font-size="1.0em" stroke-miterlimit="10.0"><path d="M 2.250000000000001,0.0 l -1.1102230246251566e-17,-0.1 h -0.1 l -1.1102230246251566e-17,0.1 h 0.10000000000000003 Z" /></g></g><g transform="matrix(439.99999999999983,0.0,0.0,439.99999999999983,21.999999999999886,541.9999999999999)"><g stroke="rgb(0,0,0)" stroke-opacity="1.0" fill="rgb(0,0,0)" fill-opacity="1.0" stroke-width="1.0e-2" stroke-linecap="butt" stroke-linejoin="miter" font-size="1.0em" stroke-miterlimit="10.0"><text transform="matrix(2.0e-2,0.0,0.0,2.0e-2,2.200000000000001,-5.0e-2)" dominant-baseline="middle" text-anchor="middle" stroke="none">70.8%</text></g></g><g transform="matrix(439.99999999999983,0.0,0.0,439.99999999999983,21.999999999999886,541.9999999999999)"><g stroke="rgb(0,0,0)" stroke-opacity="1.0" fill="rgb(0,0,0)" fill-opacity="0.0" stroke-width="1.0e-2" stroke-linecap="butt" stroke-linejoin="miter" font-size="1.0em" stroke-miterlimit="10.0"><path d="M 2.250000000000001,-0.1 l -1.1102230246251566e-17,-1.6333938294010888e-2 h -0.1 l -1.1102230246251566e-17,1.6333938294010888e-2 h 0.10000000000000003 Z" /></g></g><g transform="matrix(439.99999999999983,0.0,0.0,439.99999999999983,21.999999999999886,541.9999999999999)"><g stroke="rgb(0,0,0)" stroke-opacity="1.0" fill="rgb(0,0,0)" fill-opacity="0.0" stroke-width="1.0e-2" stroke-linecap="butt" stroke-linejoin="miter" font-size="1.0em" stroke-miterlimit="10.0"><path d="M 2.150000000000001,0.0 l -1.1102230246251566e-17,-0.1 h -0.1 l -1.1102230246251566e-17,0.1 h 0.10000000000000003 Z" /></g></g><g transform="matrix(439.99999999999983,0.0,0.0,439.99999999999983,21.999999999999886,541.9999999999999)"><g stroke="rgb(0,0,0)" stroke-opacity="1.0" fill="rgb(0,0,0)" fill-opacity="1.0" stroke-width="1.0e-2" stroke-linecap="butt" stroke-linejoin="miter" font-size="1.0em" stroke-miterlimit="10.0"><text transform="matrix(2.0e-2,0.0,0.0,2.0e-2,2.100000000000001,-5.0e-2)" dominant-baseline="middle" text-anchor="middle" stroke="none">68.72%</text></g></g><g transform="matrix(439.99999999999983,0.0,0.0,439.99999999999983,21.999999999999886,541.9999999999999)"><g stroke="rgb(0,0,0)" stroke-opacity="1.0" fill="rgb(0,0,0)" fill-opacity="0.0" stroke-width="1.0e-2" stroke-linecap="butt" stroke-linejoin="miter" font-size="1.0em" stroke-miterlimit="10.0"><path d="M 2.150000000000001,-0.1 l -1.1102230246251566e-17,-3.6297640653357534e-2 h -0.1 l -1.1102230246251566e-17,3.6297640653357534e-2 h 0.10000000000000003 Z" /></g></g><g transform="matrix(439.99999999999983,0.0,0.0,439.99999999999983,21.999999999999886,541.9999999999999)"><g stroke="rgb(0,0,0)" stroke-opacity="1.0" fill="rgb(0,0,0)" fill-opacity="0.0" stroke-width="1.0e-2" stroke-linecap="butt" stroke-linejoin="miter" font-size="1.0em" stroke-miterlimit="10.0"><path d="M 2.0500000000000007,-1.3877787807814457e-17 l -1.1102230246251566e-17,-0.1 h -0.1 l -1.1102230246251566e-17,0.1 h 0.10000000000000003 Z" /></g></g><g transform="matrix(439.99999999999983,0.0,0.0,439.99999999999983,21.999999999999886,541.9999999999999)"><g stroke="rgb(0,0,0)" stroke-opacity="1.0" fill="rgb(0,0,0)" fill-opacity="1.0" stroke-width="1.0e-2" stroke-linecap="butt" stroke-linejoin="miter" font-size="1.0em" stroke-miterlimit="10.0"><text transform="matrix(2.0e-2,0.0,0.0,2.0e-2,2.000000000000001,-5.000000000000002e-2)" dominant-baseline="middle" text-anchor="middle" stroke="none">66.64%</text></g></g><g transform="matrix(439.99999999999983,0.0,0.0,439.99999999999983,21.999999999999886,541.9999999999999)"><g stroke="rgb(0,0,0)" stroke-opacity="1.0" fill="rgb(0,0,0)" fill-opacity="0.0" stroke-width="1.0e-2" stroke-linecap="butt" stroke-linejoin="miter" font-size="1.0em" stroke-miterlimit="10.0"><path d="M 2.0500000000000007,-0.10000000000000003 l -1.1102230246251566e-17,-6.170598911070781e-2 h -0.1 l -1.1102230246251566e-17,6.170598911070781e-2 h 0.10000000000000003 Z" /></g></g><g transform="matrix(439.99999999999983,0.0,0.0,439.99999999999983,21.999999999999886,541.9999999999999)"><g stroke="rgb(0,0,0)" stroke-opacity="1.0" fill="rgb(0,0,0)" fill-opacity="0.0" stroke-width="1.0e-2" stroke-linecap="butt" stroke-linejoin="miter" font-size="1.0em" stroke-miterlimit="10.0"><path d="M 1.9500000000000008,-1.3877787807814457e-17 l -1.1102230246251566e-17,-0.1 h -0.1 l -1.1102230246251566e-17,0.1 h 0.10000000000000003 Z" /></g></g><g transform="matrix(439.99999999999983,0.0,0.0,439.99999999999983,21.999999999999886,541.9999999999999)"><g stroke="rgb(0,0,0)" stroke-opacity="1.0" fill="rgb(0,0,0)" fill-opacity="1.0" stroke-width="1.0e-2" stroke-linecap="butt" stroke-linejoin="miter" font-size="1.0em" stroke-miterlimit="10.0"><text transform="matrix(2.0e-2,0.0,0.0,2.0e-2,1.9000000000000008,-5.000000000000002e-2)" dominant-baseline="middle" text-anchor="middle" stroke="none">64.56%</text></g></g><g transform="matrix(439.99999999999983,0.0,0.0,439.99999999999983,21.999999999999886,541.9999999999999)"><g stroke="rgb(0,0,0)" stroke-opacity="1.0" fill="rgb(0,0,0)" fill-opacity="0.0" stroke-width="1.0e-2" stroke-linecap="butt" stroke-linejoin="miter" font-size="1.0em" stroke-miterlimit="10.0"><path d="M 1.9500000000000008,-0.10000000000000002 l -1.1102230246251566e-17,-0.13157894736842105 h -0.1 l -1.1102230246251566e-17,0.13157894736842105 h 0.10000000000000003 Z" /></g></g><g transform="matrix(439.99999999999983,0.0,0.0,439.99999999999983,21.999999999999886,541.9999999999999)"><g stroke="rgb(0,0,0)" stroke-opacity="1.0" fill="rgb(0,0,0)" fill-opacity="0.0" stroke-width="1.0e-2" stroke-linecap="butt" stroke-linejoin="miter" font-size="1.0em" stroke-miterlimit="10.0"><path d="M 1.8500000000000008,-1.3877787807814457e-17 l -1.1102230246251566e-17,-0.1 h -0.1 l -1.1102230246251566e-17,0.1 h 0.10000000000000003 Z" /></g></g><g transform="matrix(439.99999999999983,0.0,0.0,439.99999999999983,21.999999999999886,541.9999999999999)"><g stroke="rgb(0,0,0)" stroke-opacity="1.0" fill="rgb(0,0,0)" fill-opacity="1.0" stroke-width="1.0e-2" stroke-linecap="butt" stroke-linejoin="miter" font-size="1.0em" stroke-miterlimit="10.0"><text transform="matrix(2.0e-2,0.0,0.0,2.0e-2,1.8000000000000007,-5.000000000000002e-2)" dominant-baseline="middle" text-anchor="middle" stroke="none">62.48%</text></g></g><g transform="matrix(439.99999999999983,0.0,0.0,439.99999999999983,21.999999999999886,541.9999999999999)"><g stroke="rgb(0,0,0)" stroke-opacity="1.0" fill="rgb(0,0,0)" fill-opacity="0.0" stroke-width="1.0e-2" stroke-linecap="butt" stroke-linejoin="miter" font-size="1.0em" stroke-miterlimit="10.0"><path d="M 1.8500000000000008,-0.10000000000000003 l -1.1102230246251566e-17,-0.23321234119782214 h -0.1 l -1.1102230246251566e-17,0.23321234119782214 h 0.10000000000000003 Z" /></g></g><g transform="matrix(439.99999999999983,0.0,0.0,439.99999999999983,21.999999999999886,541.9999999999999)"><g stroke="rgb(0,0,0)" stroke-opacity="1.0" fill="rgb(0,0,0)" fill-opacity="0.0" stroke-width="1.0e-2" stroke-linecap="butt" stroke-linejoin="miter" font-size="1.0em" stroke-miterlimit="10.0"><path d="M 1.7500000000000007,1.3877787807814457e-17 l -1.1102230246251566e-17,-0.1 h -0.1 l -1.1102230246251566e-17,0.1 h 0.10000000000000003 Z" /></g></g><g transform="matrix(439.99999999999983,0.0,0.0,439.99999999999983,21.999999999999886,541.9999999999999)"><g stroke="rgb(0,0,0)" stroke-opacity="1.0" fill="rgb(0,0,0)" fill-opacity="1.0" stroke-width="1.0e-2" stroke-linecap="butt" stroke-linejoin="miter" font-size="1.0em" stroke-miterlimit="10.0"><text transform="matrix(2.0e-2,0.0,0.0,2.0e-2,1.7000000000000006,-4.999999999999999e-2)" dominant-baseline="middle" text-anchor="middle" stroke="none">60.4%</text></g></g><g transform="matrix(439.99999999999983,0.0,0.0,439.99999999999983,21.999999999999886,541.9999999999999)"><g stroke="rgb(0,0,0)" stroke-opacity="1.0" fill="rgb(0,0,0)" fill-opacity="0.0" stroke-width="1.0e-2" stroke-linecap="butt" stroke-linejoin="miter" font-size="1.0em" stroke-miterlimit="10.0"><path d="M 1.7500000000000007,-0.1 l -1.1102230246251566e-17,-0.33212341197822143 h -0.1 l -1.1102230246251566e-17,0.33212341197822143 h 0.10000000000000003 Z" /></g></g><g transform="matrix(439.99999999999983,0.0,0.0,439.99999999999983,21.999999999999886,541.9999999999999)"><g stroke="rgb(0,0,0)" stroke-opacity="1.0" fill="rgb(0,0,0)" fill-opacity="0.0" stroke-width="1.0e-2" stroke-linecap="butt" stroke-linejoin="miter" font-size="1.0em" stroke-miterlimit="10.0"><path d="M 1.6500000000000006,1.3877787807814457e-17 l -1.1102230246251566e-17,-0.1 h -0.1 l -1.1102230246251566e-17,0.1 h 0.10000000000000003 Z" /></g></g><g transform="matrix(439.99999999999983,0.0,0.0,439.99999999999983,21.999999999999886,541.9999999999999)"><g stroke="rgb(0,0,0)" stroke-opacity="1.0" fill="rgb(0,0,0)" fill-opacity="1.0" stroke-width="1.0e-2" stroke-linecap="butt" stroke-linejoin="miter" font-size="1.0em" stroke-miterlimit="10.0"><text transform="matrix(2.0e-2,0.0,0.0,2.0e-2,1.6000000000000005,-4.999999999999999e-2)" dominant-baseline="middle" text-anchor="middle" stroke="none">58.32%</text></g></g><g transform="matrix(439.99999999999983,0.0,0.0,439.99999999999983,21.999999999999886,541.9999999999999)"><g stroke="rgb(0,0,0)" stroke-opacity="1.0" fill="rgb(0,0,0)" fill-opacity="0.0" stroke-width="1.0e-2" stroke-linecap="butt" stroke-linejoin="miter" font-size="1.0em" stroke-miterlimit="10.0"><path d="M 1.6500000000000006,-9.999999999999998e-2 l -1.1102230246251566e-17,-0.5326678765880217 h -0.1 l -1.1102230246251566e-17,0.5326678765880217 h 0.10000000000000003 Z" /></g></g><g transform="matrix(439.99999999999983,0.0,0.0,439.99999999999983,21.999999999999886,541.9999999999999)"><g stroke="rgb(0,0,0)" stroke-opacity="1.0" fill="rgb(0,0,0)" fill-opacity="0.0" stroke-width="1.0e-2" stroke-linecap="butt" stroke-linejoin="miter" font-size="1.0em" stroke-miterlimit="10.0"><path d="M 1.5500000000000005,1.3877787807814457e-17 l -1.1102230246251566e-17,-0.1 h -0.1 l -1.1102230246251566e-17,0.1 h 0.10000000000000003 Z" /></g></g><g transform="matrix(439.99999999999983,0.0,0.0,439.99999999999983,21.999999999999886,541.9999999999999)"><g stroke="rgb(0,0,0)" stroke-opacity="1.0" fill="rgb(0,0,0)" fill-opacity="1.0" stroke-width="1.0e-2" stroke-linecap="butt" stroke-linejoin="miter" font-size="1.0em" stroke-miterlimit="10.0"><text transform="matrix(2.0e-2,0.0,0.0,2.0e-2,1.5000000000000004,-4.999999999999999e-2)" dominant-baseline="middle" text-anchor="middle" stroke="none">56.24%</text></g></g><g transform="matrix(439.99999999999983,0.0,0.0,439.99999999999983,21.999999999999886,541.9999999999999)"><g stroke="rgb(0,0,0)" stroke-opacity="1.0" fill="rgb(0,0,0)" fill-opacity="0.0" stroke-width="1.0e-2" stroke-linecap="butt" stroke-linejoin="miter" font-size="1.0em" stroke-miterlimit="10.0"><path d="M 1.5500000000000005,-9.999999999999998e-2 l -1.1102230246251566e-17,-0.6878402903811253 h -0.1 l -1.1102230246251566e-17,0.6878402903811253 h 0.10000000000000003 Z" /></g></g><g transform="matrix(439.99999999999983,0.0,0.0,439.99999999999983,21.999999999999886,541.9999999999999)"><g stroke="rgb(0,0,0)" stroke-opacity="1.0" fill="rgb(0,0,0)" fill-opacity="0.0" stroke-width="1.0e-2" stroke-linecap="butt" stroke-linejoin="miter" font-size="1.0em" stroke-miterlimit="10.0"><path d="M 1.4500000000000004,6.938893903907228e-17 l -1.1102230246251566e-17,-0.1 h -0.1 l -1.1102230246251566e-17,0.1 h 0.10000000000000003 Z" /></g></g><g transform="matrix(439.99999999999983,0.0,0.0,439.99999999999983,21.999999999999886,541.9999999999999)"><g stroke="rgb(0,0,0)" stroke-opacity="1.0" fill="rgb(0,0,0)" fill-opacity="1.0" stroke-width="1.0e-2" stroke-linecap="butt" stroke-linejoin="miter" font-size="1.0em" stroke-miterlimit="10.0"><text transform="matrix(2.0e-2,0.0,0.0,2.0e-2,1.4000000000000004,-4.999999999999993e-2)" dominant-baseline="middle" text-anchor="middle" stroke="none">54.16%</text></g></g><g transform="matrix(439.99999999999983,0.0,0.0,439.99999999999983,21.999999999999886,541.9999999999999)"><g stroke="rgb(0,0,0)" stroke-opacity="1.0" fill="rgb(0,0,0)" fill-opacity="0.0" stroke-width="1.0e-2" stroke-linecap="butt" stroke-linejoin="miter" font-size="1.0em" stroke-miterlimit="10.0"><path d="M 1.4500000000000004,-9.999999999999992e-2 l -1.1102230246251566e-17,-0.8067150635208712 h -0.1 l -1.1102230246251566e-17,0.8067150635208712 h 0.10000000000000003 Z" /></g></g><g transform="matrix(439.99999999999983,0.0,0.0,439.99999999999983,21.999999999999886,541.9999999999999)"><g stroke="rgb(0,0,0)" stroke-opacity="1.0" fill="rgb(0,0,0)" fill-opacity="0.0" stroke-width="1.0e-2" stroke-linecap="butt" stroke-linejoin="miter" font-size="1.0em" stroke-miterlimit="10.0"><path d="M 1.3500000000000005,-4.163336342344337e-17 l -1.1102230246251566e-17,-0.1 h -0.1 l -1.1102230246251566e-17,0.1 h 0.10000000000000003 Z" /></g></g><g transform="matrix(439.99999999999983,0.0,0.0,439.99999999999983,21.999999999999886,541.9999999999999)"><g stroke="rgb(0,0,0)" stroke-opacity="1.0" fill="rgb(0,0,0)" fill-opacity="1.0" stroke-width="1.0e-2" stroke-linecap="butt" stroke-linejoin="miter" font-size="1.0em" stroke-miterlimit="10.0"><text transform="matrix(2.0e-2,0.0,0.0,2.0e-2,1.3000000000000005,-5.0000000000000044e-2)" dominant-baseline="middle" text-anchor="middle" stroke="none">52.08%</text></g></g><g transform="matrix(439.99999999999983,0.0,0.0,439.99999999999983,21.999999999999886,541.9999999999999)"><g stroke="rgb(0,0,0)" stroke-opacity="1.0" fill="rgb(0,0,0)" fill-opacity="0.0" stroke-width="1.0e-2" stroke-linecap="butt" stroke-linejoin="miter" font-size="1.0em" stroke-miterlimit="10.0"><path d="M 1.3500000000000005,-0.10000000000000009 l -1.1102230246251566e-17,-0.9990925589836661 h -0.1 l -1.1102230246251566e-17,0.9990925589836661 h 0.10000000000000003 Z" /></g></g><g transform="matrix(439.99999999999983,0.0,0.0,439.99999999999983,21.999999999999886,541.9999999999999)"><g stroke="rgb(0,0,0)" stroke-opacity="1.0" fill="rgb(0,0,0)" fill-opacity="0.0" stroke-width="1.0e-2" stroke-linecap="butt" stroke-linejoin="miter" font-size="1.0em" stroke-miterlimit="10.0"><path d="M 1.2500000000000004,-4.163336342344337e-17 l -1.1102230246251566e-17,-0.1 h -0.1 l -1.1102230246251566e-17,0.1 h 0.10000000000000003 Z" /></g></g><g transform="matrix(439.99999999999983,0.0,0.0,439.99999999999983,21.999999999999886,541.9999999999999)"><g stroke="rgb(0,0,0)" stroke-opacity="1.0" fill="rgb(0,0,0)" fill-opacity="1.0" stroke-width="1.0e-2" stroke-linecap="butt" stroke-linejoin="miter" font-size="1.0em" stroke-miterlimit="10.0"><text transform="matrix(2.0e-2,0.0,0.0,2.0e-2,1.2000000000000004,-5.0000000000000044e-2)" dominant-baseline="middle" text-anchor="middle" stroke="none">50.0%</text></g></g><g transform="matrix(439.99999999999983,0.0,0.0,439.99999999999983,21.999999999999886,541.9999999999999)"><g stroke="rgb(0,0,0)" stroke-opacity="1.0" fill="rgb(0,0,0)" fill-opacity="0.0" stroke-width="1.0e-2" stroke-linecap="butt" stroke-linejoin="miter" font-size="1.0em" stroke-miterlimit="10.0"><path d="M 1.2500000000000004,-0.10000000000000009 l -1.1102230246251566e-17,-0.9491833030852994 h -0.1 l -1.1102230246251566e-17,0.9491833030852994 h 0.10000000000000003 Z" /></g></g><g transform="matrix(439.99999999999983,0.0,0.0,439.99999999999983,21.999999999999886,541.9999999999999)"><g stroke="rgb(0,0,0)" stroke-opacity="1.0" fill="rgb(0,0,0)" fill-opacity="0.0" stroke-width="1.0e-2" stroke-linecap="butt" stroke-linejoin="miter" font-size="1.0em" stroke-miterlimit="10.0"><path d="M 1.1500000000000006,-4.163336342344337e-17 l -1.1102230246251566e-17,-0.1 h -0.1 l -1.1102230246251566e-17,0.1 h 0.10000000000000003 Z" /></g></g><g transform="matrix(439.99999999999983,0.0,0.0,439.99999999999983,21.999999999999886,541.9999999999999)"><g stroke="rgb(0,0,0)" stroke-opacity="1.0" fill="rgb(0,0,0)" fill-opacity="1.0" stroke-width="1.0e-2" stroke-linecap="butt" stroke-linejoin="miter" font-size="1.0em" stroke-miterlimit="10.0"><text transform="matrix(2.0e-2,0.0,0.0,2.0e-2,1.1000000000000005,-5.0000000000000044e-2)" dominant-baseline="middle" text-anchor="middle" stroke="none">47.92%</text></g></g><g transform="matrix(439.99999999999983,0.0,0.0,439.99999999999983,21.999999999999886,541.9999999999999)"><g stroke="rgb(0,0,0)" stroke-opacity="1.0" fill="rgb(0,0,0)" fill-opacity="0.0" stroke-width="1.0e-2" stroke-linecap="butt" stroke-linejoin="miter" font-size="1.0em" stroke-miterlimit="10.0"><path d="M 1.1500000000000006,-0.10000000000000009 l -1.1102230246251566e-17,-1.0 h -0.1 l -1.1102230246251566e-17,1.0 h 0.10000000000000003 Z" /></g></g><g transform="matrix(439.99999999999983,0.0,0.0,439.99999999999983,21.999999999999886,541.9999999999999)"><g stroke="rgb(0,0,0)" stroke-opacity="1.0" fill="rgb(0,0,0)" fill-opacity="0.0" stroke-width="1.0e-2" stroke-linecap="butt" stroke-linejoin="miter" font-size="1.0em" stroke-miterlimit="10.0"><path d="M 1.0500000000000005,-4.163336342344337e-17 l -1.1102230246251566e-17,-0.1 h -0.1 l -1.1102230246251566e-17,0.1 h 0.10000000000000003 Z" /></g></g><g transform="matrix(439.99999999999983,0.0,0.0,439.99999999999983,21.999999999999886,541.9999999999999)"><g stroke="rgb(0,0,0)" stroke-opacity="1.0" fill="rgb(0,0,0)" fill-opacity="1.0" stroke-width="1.0e-2" stroke-linecap="butt" stroke-linejoin="miter" font-size="1.0em" stroke-miterlimit="10.0"><text transform="matrix(2.0e-2,0.0,0.0,2.0e-2,1.0000000000000004,-5.0000000000000044e-2)" dominant-baseline="middle" text-anchor="middle" stroke="none">45.84%</text></g></g><g transform="matrix(439.99999999999983,0.0,0.0,439.99999999999983,21.999999999999886,541.9999999999999)"><g stroke="rgb(0,0,0)" stroke-opacity="1.0" fill="rgb(0,0,0)" fill-opacity="0.0" stroke-width="1.0e-2" stroke-linecap="butt" stroke-linejoin="miter" font-size="1.0em" stroke-miterlimit="10.0"><path d="M 1.0500000000000005,-0.10000000000000009 l -1.1102230246251566e-17,-0.9673321234119783 h -0.1 l -1.1102230246251566e-17,0.9673321234119783 h 0.10000000000000003 Z" /></g></g><g transform="matrix(439.99999999999983,0.0,0.0,439.99999999999983,21.999999999999886,541.9999999999999)"><g stroke="rgb(0,0,0)" stroke-opacity="1.0" fill="rgb(0,0,0)" fill-opacity="0.0" stroke-width="1.0e-2" stroke-linecap="butt" stroke-linejoin="miter" font-size="1.0em" stroke-miterlimit="10.0"><path d="M 0.9500000000000004,1.3877787807814457e-17 l -1.1102230246251566e-17,-0.1 h -0.1 l -1.1102230246251566e-17,0.1 h 0.10000000000000003 Z" /></g></g><g transform="matrix(439.99999999999983,0.0,0.0,439.99999999999983,21.999999999999886,541.9999999999999)"><g stroke="rgb(0,0,0)" stroke-opacity="1.0" fill="rgb(0,0,0)" fill-opacity="1.0" stroke-width="1.0e-2" stroke-linecap="butt" stroke-linejoin="miter" font-size="1.0em" stroke-miterlimit="10.0"><text transform="matrix(2.0e-2,0.0,0.0,2.0e-2,0.9000000000000004,-4.999999999999999e-2)" dominant-baseline="middle" text-anchor="middle" stroke="none">43.76%</text></g></g><g transform="matrix(439.99999999999983,0.0,0.0,439.99999999999983,21.999999999999886,541.9999999999999)"><g stroke="rgb(0,0,0)" stroke-opacity="1.0" fill="rgb(0,0,0)" fill-opacity="0.0" stroke-width="1.0e-2" stroke-linecap="butt" stroke-linejoin="miter" font-size="1.0em" stroke-miterlimit="10.0"><path d="M 0.9500000000000004,-9.999999999999998e-2 l -1.1102230246251566e-17,-0.7849364791288567 h -0.1 l -1.1102230246251566e-17,0.7849364791288567 h 0.10000000000000003 Z" /></g></g><g transform="matrix(439.99999999999983,0.0,0.0,439.99999999999983,21.999999999999886,541.9999999999999)"><g stroke="rgb(0,0,0)" stroke-opacity="1.0" fill="rgb(0,0,0)" fill-opacity="0.0" stroke-width="1.0e-2" stroke-linecap="butt" stroke-linejoin="miter" font-size="1.0em" stroke-miterlimit="10.0"><path d="M 0.8500000000000003,1.3877787807814457e-17 l -1.1102230246251566e-17,-0.1 h -0.1 l -1.1102230246251566e-17,0.1 h 0.10000000000000003 Z" /></g></g><g transform="matrix(439.99999999999983,0.0,0.0,439.99999999999983,21.999999999999886,541.9999999999999)"><g stroke="rgb(0,0,0)" stroke-opacity="1.0" fill="rgb(0,0,0)" fill-opacity="1.0" stroke-width="1.0e-2" stroke-linecap="butt" stroke-linejoin="miter" font-size="1.0em" stroke-miterlimit="10.0"><text transform="matrix(2.0e-2,0.0,0.0,2.0e-2,0.8000000000000003,-4.999999999999999e-2)" dominant-baseline="middle" text-anchor="middle" stroke="none">41.68%</text></g></g><g transform="matrix(439.99999999999983,0.0,0.0,439.99999999999983,21.999999999999886,541.9999999999999)"><g stroke="rgb(0,0,0)" stroke-opacity="1.0" fill="rgb(0,0,0)" fill-opacity="0.0" stroke-width="1.0e-2" stroke-linecap="butt" stroke-linejoin="miter" font-size="1.0em" stroke-miterlimit="10.0"><path d="M 0.8500000000000003,-9.999999999999998e-2 l -1.1102230246251566e-17,-0.5462794918330308 h -0.1 l -1.1102230246251566e-17,0.5462794918330308 h 0.10000000000000003 Z" /></g></g><g transform="matrix(439.99999999999983,0.0,0.0,439.99999999999983,21.999999999999886,541.9999999999999)"><g stroke="rgb(0,0,0)" stroke-opacity="1.0" fill="rgb(0,0,0)" fill-opacity="0.0" stroke-width="1.0e-2" stroke-linecap="butt" stroke-linejoin="miter" font-size="1.0em" stroke-miterlimit="10.0"><path d="M 0.7500000000000002,1.3877787807814457e-17 l -1.1102230246251566e-17,-0.1 h -0.1 l -1.1102230246251566e-17,0.1 h 0.10000000000000003 Z" /></g></g><g transform="matrix(439.99999999999983,0.0,0.0,439.99999999999983,21.999999999999886,541.9999999999999)"><g stroke="rgb(0,0,0)" stroke-opacity="1.0" fill="rgb(0,0,0)" fill-opacity="1.0" stroke-width="1.0e-2" stroke-linecap="butt" stroke-linejoin="miter" font-size="1.0em" stroke-miterlimit="10.0"><text transform="matrix(2.0e-2,0.0,0.0,2.0e-2,0.7000000000000002,-4.999999999999999e-2)" dominant-baseline="middle" text-anchor="middle" stroke="none">39.6%</text></g></g><g transform="matrix(439.99999999999983,0.0,0.0,439.99999999999983,21.999999999999886,541.9999999999999)"><g stroke="rgb(0,0,0)" stroke-opacity="1.0" fill="rgb(0,0,0)" fill-opacity="0.0" stroke-width="1.0e-2" stroke-linecap="butt" stroke-linejoin="miter" font-size="1.0em" stroke-miterlimit="10.0"><path d="M 0.7500000000000002,-9.999999999999998e-2 l -1.1102230246251566e-17,-0.38656987295825773 h -0.1 l -1.1102230246251566e-17,0.38656987295825773 h 0.10000000000000003 Z" /></g></g><g transform="matrix(439.99999999999983,0.0,0.0,439.99999999999983,21.999999999999886,541.9999999999999)"><g stroke="rgb(0,0,0)" stroke-opacity="1.0" fill="rgb(0,0,0)" fill-opacity="0.0" stroke-width="1.0e-2" stroke-linecap="butt" stroke-linejoin="miter" font-size="1.0em" stroke-miterlimit="10.0"><path d="M 0.6500000000000002,-1.3877787807814457e-17 l -1.1102230246251566e-17,-0.1 h -0.1 l -1.1102230246251566e-17,0.1 h 0.10000000000000003 Z" /></g></g><g transform="matrix(439.99999999999983,0.0,0.0,439.99999999999983,21.999999999999886,541.9999999999999)"><g stroke="rgb(0,0,0)" stroke-opacity="1.0" fill="rgb(0,0,0)" fill-opacity="1.0" stroke-width="1.0e-2" stroke-linecap="butt" stroke-linejoin="miter" font-size="1.0em" stroke-miterlimit="10.0"><text transform="matrix(2.0e-2,0.0,0.0,2.0e-2,0.6000000000000002,-5.000000000000002e-2)" dominant-baseline="middle" text-anchor="middle" stroke="none">37.52%</text></g></g><g transform="matrix(439.99999999999983,0.0,0.0,439.99999999999983,21.999999999999886,541.9999999999999)"><g stroke="rgb(0,0,0)" stroke-opacity="1.0" fill="rgb(0,0,0)" fill-opacity="0.0" stroke-width="1.0e-2" stroke-linecap="butt" stroke-linejoin="miter" font-size="1.0em" stroke-miterlimit="10.0"><path d="M 0.6500000000000002,-0.10000000000000003 l -1.1102230246251566e-17,-0.27041742286751363 h -0.1 l -1.1102230246251566e-17,0.27041742286751363 h 0.10000000000000003 Z" /></g></g><g transform="matrix(439.99999999999983,0.0,0.0,439.99999999999983,21.999999999999886,541.9999999999999)"><g stroke="rgb(0,0,0)" stroke-opacity="1.0" fill="rgb(0,0,0)" fill-opacity="0.0" stroke-width="1.0e-2" stroke-linecap="butt" stroke-linejoin="miter" font-size="1.0em" stroke-miterlimit="10.0"><path d="M 0.5500000000000003,1.3877787807814457e-17 l -1.1102230246251566e-17,-0.1 h -0.1 l -1.1102230246251566e-17,0.1 h 0.10000000000000003 Z" /></g></g><g transform="matrix(439.99999999999983,0.0,0.0,439.99999999999983,21.999999999999886,541.9999999999999)"><g stroke="rgb(0,0,0)" stroke-opacity="1.0" fill="rgb(0,0,0)" fill-opacity="1.0" stroke-width="1.0e-2" stroke-linecap="butt" stroke-linejoin="miter" font-size="1.0em" stroke-miterlimit="10.0"><text transform="matrix(2.0e-2,0.0,0.0,2.0e-2,0.5000000000000002,-4.999999999999999e-2)" dominant-baseline="middle" text-anchor="middle" stroke="none">35.44%</text></g></g><g transform="matrix(439.99999999999983,0.0,0.0,439.99999999999983,21.999999999999886,541.9999999999999)"><g stroke="rgb(0,0,0)" stroke-opacity="1.0" fill="rgb(0,0,0)" fill-opacity="0.0" stroke-width="1.0e-2" stroke-linecap="butt" stroke-linejoin="miter" font-size="1.0em" stroke-miterlimit="10.0"><path d="M 0.5500000000000003,-9.999999999999998e-2 l -1.1102230246251566e-17,-0.16061705989110708 h -0.1 l -1.1102230246251566e-17,0.16061705989110708 h 0.10000000000000003 Z" /></g></g><g transform="matrix(439.99999999999983,0.0,0.0,439.99999999999983,21.999999999999886,541.9999999999999)"><g stroke="rgb(0,0,0)" stroke-opacity="1.0" fill="rgb(0,0,0)" fill-opacity="0.0" stroke-width="1.0e-2" stroke-linecap="butt" stroke-linejoin="miter" font-size="1.0em" stroke-miterlimit="10.0"><path d="M 0.4500000000000002,-1.3877787807814457e-17 l -1.1102230246251566e-17,-0.1 h -0.1 l -1.1102230246251566e-17,0.1 h 0.10000000000000003 Z" /></g></g><g transform="matrix(439.99999999999983,0.0,0.0,439.99999999999983,21.999999999999886,541.9999999999999)"><g stroke="rgb(0,0,0)" stroke-opacity="1.0" fill="rgb(0,0,0)" fill-opacity="1.0" stroke-width="1.0e-2" stroke-linecap="butt" stroke-linejoin="miter" font-size="1.0em" stroke-miterlimit="10.0"><text transform="matrix(2.0e-2,0.0,0.0,2.0e-2,0.40000000000000013,-5.000000000000002e-2)" dominant-baseline="middle" text-anchor="middle" stroke="none">33.36%</text></g></g><g transform="matrix(439.99999999999983,0.0,0.0,439.99999999999983,21.999999999999886,541.9999999999999)"><g stroke="rgb(0,0,0)" stroke-opacity="1.0" fill="rgb(0,0,0)" fill-opacity="0.0" stroke-width="1.0e-2" stroke-linecap="butt" stroke-linejoin="miter" font-size="1.0em" stroke-miterlimit="10.0"><path d="M 0.4500000000000002,-0.10000000000000003 l -1.1102230246251566e-17,-8.348457350272233e-2 h -0.1 l -1.1102230246251566e-17,8.348457350272233e-2 h 0.10000000000000003 Z" /></g></g><g transform="matrix(439.99999999999983,0.0,0.0,439.99999999999983,21.999999999999886,541.9999999999999)"><g stroke="rgb(0,0,0)" stroke-opacity="1.0" fill="rgb(0,0,0)" fill-opacity="0.0" stroke-width="1.0e-2" stroke-linecap="butt" stroke-linejoin="miter" font-size="1.0em" stroke-miterlimit="10.0"><path d="M 0.3500000000000001,0.0 l -1.1102230246251566e-17,-0.1 h -0.1 l -1.1102230246251566e-17,0.1 h 0.10000000000000003 Z" /></g></g><g transform="matrix(439.99999999999983,0.0,0.0,439.99999999999983,21.999999999999886,541.9999999999999)"><g stroke="rgb(0,0,0)" stroke-opacity="1.0" fill="rgb(0,0,0)" fill-opacity="1.0" stroke-width="1.0e-2" stroke-linecap="butt" stroke-linejoin="miter" font-size="1.0em" stroke-miterlimit="10.0"><text transform="matrix(2.0e-2,0.0,0.0,2.0e-2,0.3000000000000001,-5.0e-2)" dominant-baseline="middle" text-anchor="middle" stroke="none">31.28%</text></g></g><g transform="matrix(439.99999999999983,0.0,0.0,439.99999999999983,21.999999999999886,541.9999999999999)"><g stroke="rgb(0,0,0)" stroke-opacity="1.0" fill="rgb(0,0,0)" fill-opacity="0.0" stroke-width="1.0e-2" stroke-linecap="butt" stroke-linejoin="miter" font-size="1.0em" stroke-miterlimit="10.0"><path d="M 0.3500000000000001,-0.1 l -1.1102230246251566e-17,-4.900181488203267e-2 h -0.1 l -1.1102230246251566e-17,4.900181488203267e-2 h 0.10000000000000003 Z" /></g></g><g transform="matrix(439.99999999999983,0.0,0.0,439.99999999999983,21.999999999999886,541.9999999999999)"><g stroke="rgb(0,0,0)" stroke-opacity="1.0" fill="rgb(0,0,0)" fill-opacity="0.0" stroke-width="1.0e-2" stroke-linecap="butt" stroke-linejoin="miter" font-size="1.0em" stroke-miterlimit="10.0"><path d="M 0.2500000000000001,0.0 l -1.1102230246251566e-17,-0.1 h -0.1 l -1.1102230246251566e-17,0.1 h 0.10000000000000003 Z" /></g></g><g transform="matrix(439.99999999999983,0.0,0.0,439.99999999999983,21.999999999999886,541.9999999999999)"><g stroke="rgb(0,0,0)" stroke-opacity="1.0" fill="rgb(0,0,0)" fill-opacity="1.0" stroke-width="1.0e-2" stroke-linecap="butt" stroke-linejoin="miter" font-size="1.0em" stroke-miterlimit="10.0"><text transform="matrix(2.0e-2,0.0,0.0,2.0e-2,0.20000000000000007,-5.0e-2)" dominant-baseline="middle" text-anchor="middle" stroke="none">29.2%</text></g></g><g transform="matrix(439.99999999999983,0.0,0.0,439.99999999999983,21.999999999999886,541.9999999999999)"><g stroke="rgb(0,0,0)" stroke-opacity="1.0" fill="rgb(0,0,0)" fill-opacity="0.0" stroke-width="1.0e-2" stroke-linecap="butt" stroke-linejoin="miter" font-size="1.0em" stroke-miterlimit="10.0"><path d="M 0.2500000000000001,-0.1 l -1.1102230246251566e-17,-1.9963702359346643e-2 h -0.1 l -1.1102230246251566e-17,1.9963702359346643e-2 h 0.10000000000000003 Z" /></g></g><g transform="matrix(439.99999999999983,0.0,0.0,439.99999999999983,21.999999999999886,541.9999999999999)"><g stroke="rgb(0,0,0)" stroke-opacity="1.0" fill="rgb(0,0,0)" fill-opacity="0.0" stroke-width="1.0e-2" stroke-linecap="butt" stroke-linejoin="miter" font-size="1.0em" stroke-miterlimit="10.0"><path d="M 0.15000000000000005,6.938893903907228e-18 l -1.1102230246251566e-17,-0.1 h -0.1 l -1.1102230246251566e-17,0.1 h 0.10000000000000003 Z" /></g></g><g transform="matrix(439.99999999999983,0.0,0.0,439.99999999999983,21.999999999999886,541.9999999999999)"><g stroke="rgb(0,0,0)" stroke-opacity="1.0" fill="rgb(0,0,0)" fill-opacity="1.0" stroke-width="1.0e-2" stroke-linecap="butt" stroke-linejoin="miter" font-size="1.0em" stroke-miterlimit="10.0"><text transform="matrix(2.0e-2,0.0,0.0,2.0e-2,0.10000000000000003,-4.9999999999999996e-2)" dominant-baseline="middle" text-anchor="middle" stroke="none">27.12%</text></g></g><g transform="matrix(439.99999999999983,0.0,0.0,439.99999999999983,21.999999999999886,541.9999999999999)"><g stroke="rgb(0,0,0)" stroke-opacity="1.0" fill="rgb(0,0,0)" fill-opacity="0.0" stroke-width="1.0e-2" stroke-linecap="butt" stroke-linejoin="miter" font-size="1.0em" stroke-miterlimit="10.0"><path d="M 0.15000000000000005,-0.1 l -1.1102230246251566e-17,-8.166969147005444e-3 h -0.1 l -1.1102230246251566e-17,8.166969147005444e-3 h 0.10000000000000003 Z" /></g></g><g transform="matrix(439.99999999999983,0.0,0.0,439.99999999999983,21.999999999999886,541.9999999999999)"><g stroke="rgb(0,0,0)" stroke-opacity="1.0" fill="rgb(0,0,0)" fill-opacity="0.0" stroke-width="1.0e-2" stroke-linecap="butt" stroke-linejoin="miter" font-size="1.0em" stroke-miterlimit="10.0"><path d="M 5.000000000000002e-2,-6.938893903907228e-18 l -1.1102230246251566e-17,-0.1 h -0.1 l -1.1102230246251566e-17,0.1 h 0.10000000000000003 Z" /></g></g><g transform="matrix(439.99999999999983,0.0,0.0,439.99999999999983,21.999999999999886,541.9999999999999)"><g stroke="rgb(0,0,0)" stroke-opacity="1.0" fill="rgb(0,0,0)" fill-opacity="1.0" stroke-width="1.0e-2" stroke-linecap="butt" stroke-linejoin="miter" font-size="1.0em" stroke-miterlimit="10.0"><text transform="matrix(2.0e-2,0.0,0.0,2.0e-2,0.0,-5.000000000000001e-2)" dominant-baseline="middle" text-anchor="middle" stroke="none">25.04%</text></g></g><g transform="matrix(439.99999999999983,0.0,0.0,439.99999999999983,21.999999999999886,541.9999999999999)"><g stroke="rgb(0,0,0)" stroke-opacity="1.0" fill="rgb(0,0,0)" fill-opacity="0.0" stroke-width="1.0e-2" stroke-linecap="butt" stroke-linejoin="miter" font-size="1.0em" stroke-miterlimit="10.0"><path d="M 5.000000000000002e-2,-0.10000000000000002 l -1.1102230246251566e-17,-3.629764065335753e-3 h -0.1 l -1.1102230246251566e-17,3.629764065335753e-3 h 0.10000000000000003 Z" /></g></g></g></svg>