<?xml version="1.0" encoding="UTF-8"?>
<!DOCTYPE svg PUBLIC "-//W3C//DTD SVG 1.1//EN"
    "http://www.w3.org/Graphics/SVG/1.1/DTD/svg11.dtd">
<svg xmlns="http://www.w3.org/2000/svg" xmlns:xlink="http://www.w3.org/1999/xlink" version="1.1" width="800.0" height="363.6363636363636" font-size="1" viewBox="0 0 800 364"><g><g transform="matrix(363.6363636363636,0.0,0.0,363.6363636363636,400.0,181.8181818181818)"><g stroke="rgb(0,0,0)" stroke-opacity="1.0" fill="rgb(192,192,192)" fill-opacity="1.0" stroke-width="1.0e-2" stroke-linecap="butt" stroke-linejoin="miter" font-size="1.0em" stroke-miterlimit="10.0"><path d="M 1.0049999999999994,2.5e-2 l -1.1102230246251568e-18,-5.0e-2 h -1.0000000000000002e-2 l -1.1102230246251568e-18,5.0e-2 h 1.0000000000000005e-2 Z" /></g></g><g transform="matrix(363.6363636363636,0.0,0.0,363.6363636363636,400.0,181.8181818181818)"><g stroke="rgb(0,0,0)" stroke-opacity="1.0" fill="rgb(192,192,192)" fill-opacity="1.0" stroke-width="1.0e-2" stroke-linecap="butt" stroke-linejoin="miter" font-size="1.0em" stroke-miterlimit="10.0"><path d="M 0.8049999999999996,2.5e-2 l -1.1102230246251568e-18,-5.0e-2 h -1.0000000000000002e-2 l -1.1102230246251568e-18,5.0e-2 h 1.0000000000000005e-2 Z" /></g></g><g transform="matrix(363.6363636363636,0.0,0.0,363.6363636363636,400.0,181.8181818181818)"><g stroke="rgb(0,0,0)" stroke-opacity="1.0" fill="rgb(192,192,192)" fill-opacity="1.0" stroke-width="1.0e-2" stroke-linecap="butt" stroke-linejoin="miter" font-size="1.0em" stroke-miterlimit="10.0"><path d="M 0.6049999999999996,2.5e-2 l -1.1102230246251568e-18,-5.0e-2 h -1.0000000000000002e-2 l -1.1102230246251568e-18,5.0e-2 h 1.0000000000000005e-2 Z" /></g></g><g transform="matrix(363.6363636363636,0.0,0.0,363.6363636363636,400.0,181.8181818181818)"><g stroke="rgb(0,0,0)" stroke-opacity="1.0" fill="rgb(192,192,192)" fill-opacity="1.0" stroke-width="1.0e-2" stroke-linecap="butt" stroke-linejoin="miter" font-size="1.0em" stroke-miterlimit="10.0"><path d="M 0.4049999999999997,2.5e-2 l -1.1102230246251568e-18,-5.0e-2 h -1.0000000000000002e-2 l -1.1102230246251568e-18,5.0e-2 h 1.0000000000000005e-2 Z" /></g></g><g transform="matrix(363.6363636363636,0.0,0.0,363.6363636363636,400.0,181.8181818181818)"><g stroke="rgb(0,0,0)" stroke-opacity="1.0" fill="rgb(192,192,192)" fill-opacity="1.0" stroke-width="1.0e-2" stroke-linecap="butt" stroke-linejoin="miter" font-size="1.0em" stroke-miterlimit="10.0"><path d="M 0.20499999999999974,2.5e-2 l -1.1102230246251568e-18,-5.0e-2 h -1.0000000000000002e-2 l -1.1102230246251568e-18,5.0e-2 h 1.0000000000000005e-2 Z" /></g></g><g transform="matrix(363.6363636363636,0.0,0.0,363.6363636363636,400.0,181.8181818181818)"><g stroke="rgb(0,0,0)" stroke-opacity="1.0" fill="rgb(192,192,192)" fill-opacity="1.0" stroke-width="1.0e-2" stroke-linecap="butt" stroke-linejoin="miter" font-size="1.0em" stroke-miterlimit="10.0"><path d="M 4.99999999999978e-3,2.5e-2 l -1.1102230246251568e-18,-5.0e-2 h -1.0000000000000002e-2 l -1.1102230246251568e-18,5.0e-2 h 1.0000000000000005e-2 Z" /></g></g><g transform="matrix(363.6363636363636,0.0,0.0,363.6363636363636,400.0,181.8181818181818)"><g stroke="rgb(0,0,0)" stroke-opacity="1.0" fill="rgb(192,192,192)" fill-opacity="1.0" stroke-width="1.0e-2" stroke-linecap="butt" stroke-linejoin="miter" font-size="1.0em" stroke-miterlimit="10.0"><path d="M -0.19500000000000017,2.5e-2 l -1.1102230246251568e-18,-5.0e-2 h -1.0000000000000002e-2 l -1.1102230246251568e-18,5.0e-2 h 1.0000000000000005e-2 Z" /></g></g><g transform="matrix(363.6363636363636,0.0,0.0,363.6363636363636,400.0,181.8181818181818)"><g stroke="rgb(0,0,0)" stroke-opacity="1.0" fill="rgb(192,192,192)" fill-opacity="1.0" stroke-width="1.0e-2" stroke-linecap="butt" stroke-linejoin="miter" font-size="1.0em" stroke-miterlimit="10.0"><path d="M -0.39500000000000013,2.5e-2 l -1.1102230246251568e-18,-5.0e-2 h -1.0000000000000002e-2 l -1.1102230246251568e-18,5.0e-2 h 1.0000000000000005e-2 Z" /></g></g><g transform="matrix(363.6363636363636,0.0,0.0,363.6363636363636,400.0,181.8181818181818)"><g stroke="rgb(0,0,0)" stroke-opacity="1.0" fill="rgb(192,192,192)" fill-opacity="1.0" stroke-width="1.0e-2" stroke-linecap="butt" stroke-linejoin="miter" font-size="1.0em" stroke-miterlimit="10.0"><path d="M -0.5950000000000001,2.5e-2 l -1.1102230246251568e-18,-5.0e-2 h -1.0000000000000002e-2 l -1.1102230246251568e-18,5.0e-2 h 1.0000000000000005e-2 Z" /></g></g><g transform="matrix(363.6363636363636,0.0,0.0,363.6363636363636,400.0,181.8181818181818)"><g stroke="rgb(0,0,0)" stroke-opacity="1.0" fill="rgb(192,192,192)" fill-opacity="1.0" stroke-width="1.0e-2" stroke-linecap="butt" stroke-linejoin="miter" font-size="1.0em" stroke-miterlimit="10.0"><path d="M -0.795,2.5e-2 l -1.1102230246251568e-18,-5.0e-2 h -1.0000000000000002e-2 l -1.1102230246251568e-18,5.0e-2 h 1.0000000000000005e-2 Z" /></g></g><g transform="matrix(363.6363636363636,0.0,0.0,363.6363636363636,400.0,181.8181818181818)"><g stroke="rgb(0,0,0)" stroke-opacity="1.0" fill="rgb(192,192,192)" fill-opacity="1.0" stroke-width="1.0e-2" stroke-linecap="butt" stroke-linejoin="miter" font-size="1.0em" stroke-miterlimit="10.0"><path d="M -0.995,2.5e-2 l -1.1102230246251568e-18,-5.0e-2 h -1.0000000000000002e-2 l -1.1102230246251568e-18,5.0e-2 h 1.0000000000000005e-2 Z" /></g></g><g transform="matrix(363.6363636363636,0.0,0.0,363.6363636363636,400.0,181.8181818181818)"><g stroke="rgb(0,0,0)" stroke-opacity="1.0" fill="rgb(0,0,0)" fill-opacity="0.0" stroke-width="1.0e-2" stroke-linecap="butt" stroke-linejoin="miter" font-size="1.0em" stroke-miterlimit="10.0"><path d="M 1.1,0.2 c 0.0,-5.522847498307935e-2 -4.4771525016920645e-2,-0.1 -9.999999999999998e-2 -0.1c -5.522847498307935e-2,-3.3817687554908897e-18 -0.1,4.477152501692064e-2 -0.1 9.999999999999998e-2c -6.763537510981779e-18,5.522847498307935e-2 4.477152501692064e-2,0.1 9.999999999999996e-2 0.1c 5.522847498307935e-2,1.014530626647267e-17 0.1,-4.477152501692063e-2 0.10000000000000002 -9.999999999999998e-2Z" /></g></g><g transform="matrix(363.6363636363636,0.0,0.0,363.6363636363636,400.0,181.8181818181818)"><g stroke="rgb(0,0,0)" stroke-opacity="1.0" fill="rgb(0,0,0)" fill-opacity="0.0" stroke-width="1.0e-2" stroke-linecap="butt" stroke-linejoin="miter" font-size="1.0em" stroke-miterlimit="10.0"><path d="M 1.1,0.30000000000000004 l -2.2204460492503132e-17,-0.2 h -0.2 l -2.2204460492503132e-17,0.2 h 0.20000000000000007 Z" /></g></g><g transform="matrix(363.6363636363636,0.0,0.0,363.6363636363636,400.0,181.8181818181818)"><g stroke="rgb(0,0,0)" stroke-opacity="1.0" fill="rgb(255,0,0)" fill-opacity="1.0" stroke-width="0.0" stroke-linecap="butt" stroke-linejoin="miter" font-size="1.0em" stroke-miterlimit="10.0"><path d="M 1.004,0.2 c 0.0,-2.209138999323174e-3 -1.790861000676826e-3,-4.0e-3 -3.999999999999999e-3 -4.0e-3c -2.209138999323174e-3,-1.352707502196356e-19 -4.0e-3,1.7908610006768255e-3 -4.0e-3 3.999999999999999e-3c -2.705415004392712e-19,2.209138999323174e-3 1.7908610006768255e-3,4.0e-3 3.999999999999998e-3 4.0e-3c 2.209138999323174e-3,4.058122506589068e-19 4.0e-3,-1.7908610006768253e-3 4.000000000000002e-3 -3.999999999999999e-3Z" /></g></g><g transform="matrix(363.6363636363636,0.0,0.0,363.6363636363636,400.0,181.8181818181818)"><g stroke="rgb(0,0,0)" stroke-opacity="1.0" fill="rgb(0,0,0)" fill-opacity="0.0" stroke-width="1.0e-2" stroke-linecap="butt" stroke-linejoin="miter" font-size="1.0em" stroke-miterlimit="10.0"><path d="M 6.453241115787983e-2,0.2 c 0.0,-5.522847498307935e-2 -4.4771525016920645e-2,-0.1 -9.999999999999998e-2 -0.1c -5.522847498307935e-2,-3.3817687554908897e-18 -0.1,4.477152501692064e-2 -0.1 9.999999999999998e-2c -6.763537510981779e-18,5.522847498307935e-2 4.477152501692064e-2,0.1 9.999999999999996e-2 0.1c 5.522847498307935e-2,1.014530626647267e-17 0.1,-4.477152501692063e-2 0.10000000000000002 -9.999999999999998e-2Z" /></g></g><g transform="matrix(363.6363636363636,0.0,0.0,363.6363636363636,400.0,181.8181818181818)"><g stroke="rgb(0,0,0)" stroke-opacity="1.0" fill="rgb(0,0,0)" fill-opacity="0.0" stroke-width="1.0e-2" stroke-linecap="butt" stroke-linejoin="miter" font-size="1.0em" stroke-miterlimit="10.0"><path d="M 6.453241115787986e-2,0.30000000000000004 l -2.2204460492503132e-17,-0.2 h -0.2 l -2.2204460492503132e-17,0.2 h 0.20000000000000007 Z" /></g></g><g transform="matrix(363.6363636363636,0.0,0.0,363.6363636363636,400.0,181.8181818181818)"><g stroke="rgb(0,0,0)" stroke-opacity="1.0" fill="rgb(255,0,0)" fill-opacity="1.0" stroke-width="0.0" stroke-linecap="butt" stroke-linejoin="miter" font-size="1.0em" stroke-miterlimit="10.0"><path d="M -3.1467588842120184e-2,0.2 c 0.0,-2.209138999323174e-3 -1.790861000676826e-3,-4.0e-3 -3.999999999999999e-3 -4.0e-3c -2.209138999323174e-3,-1.352707502196356e-19 -4.0e-3,1.7908610006768255e-3 -4.0e-3 3.999999999999999e-3c -2.705415004392712e-19,2.209138999323174e-3 1.7908610006768255e-3,4.0e-3 3.999999999999998e-3 4.0e-3c 2.209138999323174e-3,4.058122506589068e-19 4.0e-3,-1.7908610006768253e-3 4.000000000000002e-3 -3.999999999999999e-3Z" /></g></g><g transform="matrix(363.6363636363636,0.0,0.0,363.6363636363636,400.0,181.8181818181818)"><g stroke="rgb(0,0,0)" stroke-opacity="1.0" fill="rgb(0,0,255)" fill-opacity="0.5" stroke-width="1.0e-2" stroke-linecap="butt" stroke-linejoin="miter" font-size="1.0em" stroke-miterlimit="10.0"><path d="M 1.0,0.30000000000000004 l -1.1495999583856166e-16,-0.2 h -1.03546758884212 l -1.1495999583856166e-16,0.2 h 1.0354675888421205 Z" /></g></g><g transform="matrix(363.6363636363636,0.0,0.0,363.6363636363636,400.0,181.8181818181818)"><g stroke="rgb(0,0,0)" stroke-opacity="1.0" fill="rgb(0,0,0)" fill-opacity="0.0" stroke-width="1.0e-2" stroke-linecap="butt" stroke-linejoin="miter" font-size="1.0em" stroke-miterlimit="10.0"><path d="M 2.901033362645497e-2,0.0 c 0.0,-5.522847498307935e-2 -4.4771525016920645e-2,-0.1 -9.999999999999998e-2 -0.1c -5.522847498307935e-2,-3.3817687554908897e-18 -0.1,4.477152501692064e-2 -0.1 9.999999999999998e-2c -6.763537510981779e-18,5.522847498307935e-2 4.477152501692064e-2,0.1 9.999999999999996e-2 0.1c 5.522847498307935e-2,1.014530626647267e-17 0.1,-4.477152501692063e-2 0.10000000000000002 -9.999999999999998e-2Z" /></g></g><g transform="matrix(363.6363636363636,0.0,0.0,363.6363636363636,400.0,181.8181818181818)"><g stroke="rgb(0,0,0)" stroke-opacity="1.0" fill="rgb(0,0,0)" fill-opacity="0.0" stroke-width="1.0e-2" stroke-linecap="butt" stroke-linejoin="miter" font-size="1.0em" stroke-miterlimit="10.0"><path d="M 2.9010333626454998e-2,0.1 l -2.2204460492503132e-17,-0.2 h -0.2 l -2.2204460492503132e-17,0.2 h 0.20000000000000007 Z" /></g></g><g transform="matrix(363.6363636363636,0.0,0.0,363.6363636363636,400.0,181.8181818181818)"><g stroke="rgb(0,0,0)" stroke-opacity="1.0" fill="rgb(255,0,0)" fill-opacity="1.0" stroke-width="0.0" stroke-linecap="butt" stroke-linejoin="miter" font-size="1.0em" stroke-miterlimit="10.0"><path d="M -6.698966637354503e-2,0.0 c 0.0,-2.209138999323174e-3 -1.790861000676826e-3,-4.0e-3 -3.999999999999999e-3 -4.0e-3c -2.209138999323174e-3,-1.352707502196356e-19 -4.0e-3,1.7908610006768255e-3 -4.0e-3 3.999999999999999e-3c -2.705415004392712e-19,2.209138999323174e-3 1.7908610006768255e-3,4.0e-3 3.999999999999998e-3 4.0e-3c 2.209138999323174e-3,4.058122506589068e-19 4.0e-3,-1.7908610006768253e-3 4.000000000000002e-3 -3.999999999999999e-3Z" /></g></g><g transform="matrix(363.6363636363636,0.0,0.0,363.6363636363636,400.0,181.8181818181818)"><g stroke="rgb(0,0,0)" stroke-opacity="1.0" fill="rgb(0,0,0)" fill-opacity="0.0" stroke-width="1.0e-2" stroke-linecap="butt" stroke-linejoin="miter" font-size="1.0em" stroke-miterlimit="10.0"><path d="M -0.9,0.0 c 0.0,-5.522847498307935e-2 -4.4771525016920645e-2,-0.1 -9.999999999999998e-2 -0.1c -5.522847498307935e-2,-3.3817687554908897e-18 -0.1,4.477152501692064e-2 -0.1 9.999999999999998e-2c -6.763537510981779e-18,5.522847498307935e-2 4.477152501692064e-2,0.1 9.999999999999996e-2 0.1c 5.522847498307935e-2,1.014530626647267e-17 0.1,-4.477152501692063e-2 0.10000000000000002 -9.999999999999998e-2Z" /></g></g><g transform="matrix(363.6363636363636,0.0,0.0,363.6363636363636,400.0,181.8181818181818)"><g stroke="rgb(0,0,0)" stroke-opacity="1.0" fill="rgb(0,0,0)" fill-opacity="0.0" stroke-width="1.0e-2" stroke-linecap="butt" stroke-linejoin="miter" font-size="1.0em" stroke-miterlimit="10.0"><path d="M -0.8999999999999999,0.1 l -2.2204460492503132e-17,-0.2 h -0.2 l -2.2204460492503132e-17,0.2 h 0.20000000000000007 Z" /></g></g><g transform="matrix(363.6363636363636,0.0,0.0,363.6363636363636,400.0,181.8181818181818)"><g stroke="rgb(0,0,0)" stroke-opacity="1.0" fill="rgb(255,0,0)" fill-opacity="1.0" stroke-width="0.0" stroke-linecap="butt" stroke-linejoin="miter" font-size="1.0em" stroke-miterlimit="10.0"><path d="M -0.996,0.0 c 0.0,-2.209138999323174e-3 -1.790861000676826e-3,-4.0e-3 -3.999999999999999e-3 -4.0e-3c -2.209138999323174e-3,-1.352707502196356e-19 -4.0e-3,1.7908610006768255e-3 -4.0e-3 3.999999999999999e-3c -2.705415004392712e-19,2.209138999323174e-3 1.7908610006768255e-3,4.0e-3 3.999999999999998e-3 4.0e-3c 2.209138999323174e-3,4.058122506589068e-19 4.0e-3,-1.7908610006768253e-3 4.000000000000002e-3 -3.999999999999999e-3Z" /></g></g><g transform="matrix(363.6363636363636,0.0,0.0,363.6363636363636,400.0,181.8181818181818)"><g stroke="rgb(0,0,0)" stroke-opacity="1.0" fill="rgb(0,0,255)" fill-opacity="0.5" stroke-width="1.0e-2" stroke-linecap="butt" stroke-linejoin="miter" font-size="1.0em" stroke-miterlimit="10.0"><path d="M -7.098966637354487e-2,0.1 l -1.0314086625067887e-16,-0.2 h -0.929010333626455 l -1.0314086625067887e-16,0.2 h 0.9290103336264552 Z" /></g></g><g transform="matrix(363.6363636363636,0.0,0.0,363.6363636363636,400.0,181.8181818181818)"><g stroke="rgb(128,0,128)" stroke-opacity="1.0" fill="rgb(0,0,0)" fill-opacity="0.0" stroke-width="1.0e-2" stroke-linecap="butt" stroke-linejoin="miter" font-size="1.0em" stroke-miterlimit="10.0"><path d="M 1.0000000000000002,0.5 l -2.220446049250313e-16,-1.0 h -2.0 l -2.220446049250313e-16,1.0 h 2.0 Z" /></g></g></g></svg>