<?xml version="1.0" encoding="UTF-8"?>
<!DOCTYPE svg PUBLIC "-//W3C//DTD SVG 1.1//EN"
    "http://www.w3.org/Graphics/SVG/1.1/DTD/svg11.dtd">
<svg xmlns="http://www.w3.org/2000/svg" xmlns:xlink="http://www.w3.org/1999/xlink" version="1.1" width="800.0" height="300.0" font-size="1" viewBox="0 0 800 300"><g><g transform="matrix(363.6363636363636,0.0,0.0,363.6363636363636,400.00000000000017,45.45454545454547)"><g stroke="rgb(0,0,0)" stroke-opacity="1.0" fill="rgb(0,0,0)" fill-opacity="1.0" stroke-width="1.0e-2" stroke-linecap="butt" stroke-linejoin="miter" font-size="0.1em" stroke-miterlimit="10.0"><text transform="matrix(1.0,0.0,0.0,1.0,0.0,0.6)" dominant-baseline="middle" text-anchor="middle" stroke="none">(2.41 .. 2.99) ∩ (2.79 .. 3.41) = 20.01%</text></g></g><g transform="matrix(363.6363636363636,0.0,0.0,363.6363636363636,400.00000000000017,45.45454545454547)"><g stroke="rgb(0,0,0)" stroke-opacity="0.0" fill="rgb(0,0,0)" fill-opacity="0.0" stroke-width="1.0e-2" stroke-linecap="butt" stroke-linejoin="miter" font-size="1.0em" stroke-miterlimit="10.0"><path d="M 1.0000000000000002,0.7 l -2.220446049250313e-16,-0.2 h -2.0 l -2.220446049250313e-16,0.2 h 2.0 Z" /></g></g><g transform="matrix(363.6363636363636,0.0,0.0,363.6363636363636,400.00000000000017,45.45454545454547)"><g stroke="rgb(0,0,0)" stroke-opacity="0.0" fill="rgb(0,0,0)" fill-opacity="0.0" stroke-width="1.0e-2" stroke-linecap="butt" stroke-linejoin="miter" font-size="1.0em" stroke-miterlimit="10.0"><path d="M 1.0999999999999996,0.4 c -1.1102230246251566e-17,-5.5228474983079326e-2 -4.477152501692066e-2,-9.999999999999998e-2 -9.999999999999998e-2 -0.1c -5.5228474983079326e-2,7.720573177441608e-18 -9.999999999999998e-2,4.477152501692065e-2 -0.1 9.999999999999998e-2c 4.33891610863165e-18,5.5228474983079326e-2 4.4771525016920645e-2,9.999999999999998e-2 9.999999999999996e-2 0.1c 5.5228474983079326e-2,-9.572590398216926e-19 9.999999999999998e-2,-4.477152501692064e-2 0.10000000000000002 -9.999999999999998e-2Z" /></g></g><g transform="matrix(363.6363636363636,0.0,0.0,363.6363636363636,400.00000000000017,45.45454545454547)"><g stroke="rgb(0,0,0)" stroke-opacity="0.0" fill="rgb(0,0,0)" fill-opacity="0.0" stroke-width="1.0e-2" stroke-linecap="butt" stroke-linejoin="miter" font-size="1.0em" stroke-miterlimit="10.0"><path d="M 1.0999999999999996,0.5 l -2.2204460492503132e-17,-0.2 h -0.2 l -2.2204460492503132e-17,0.2 h 0.20000000000000007 Z" /></g></g><g transform="matrix(363.6363636363636,0.0,0.0,363.6363636363636,400.00000000000017,45.45454545454547)"><g stroke="rgb(0,0,0)" stroke-opacity="1.0" fill="rgb(255,0,0)" fill-opacity="1.0" stroke-width="0.0" stroke-linecap="butt" stroke-linejoin="miter" font-size="1.0em" stroke-miterlimit="10.0"><path d="M 1.0039999999999996,0.4 c -4.440892098500626e-19,-2.209138999323173e-3 -1.7908610006768261e-3,-3.999999999999999e-3 -3.999999999999999e-3 -4.0e-3c -2.209138999323173e-3,3.088229270976643e-19 -3.999999999999999e-3,1.7908610006768261e-3 -4.0e-3 3.999999999999999e-3c 1.73556644345266e-19,2.209138999323173e-3 1.790861000676826e-3,3.999999999999999e-3 3.999999999999998e-3 4.0e-3c 2.209138999323173e-3,-3.829036159286771e-20 3.999999999999999e-3,-1.7908610006768255e-3 4.000000000000002e-3 -3.999999999999999e-3Z" /></g></g><g transform="matrix(363.6363636363636,0.0,0.0,363.6363636363636,400.00000000000017,45.45454545454547)"><g stroke="rgb(0,0,0)" stroke-opacity="0.0" fill="rgb(0,0,0)" fill-opacity="0.0" stroke-width="1.0e-2" stroke-linecap="butt" stroke-linejoin="miter" font-size="1.0em" stroke-miterlimit="10.0"><path d="M -0.14028385325539705,0.4 c -1.1102230246251566e-17,-5.5228474983079326e-2 -4.477152501692066e-2,-9.999999999999998e-2 -9.999999999999998e-2 -0.1c -5.5228474983079326e-2,7.720573177441608e-18 -9.999999999999998e-2,4.477152501692065e-2 -0.1 9.999999999999998e-2c 4.33891610863165e-18,5.5228474983079326e-2 4.4771525016920645e-2,9.999999999999998e-2 9.999999999999996e-2 0.1c 5.5228474983079326e-2,-9.572590398216926e-19 9.999999999999998e-2,-4.477152501692064e-2 0.10000000000000002 -9.999999999999998e-2Z" /></g></g><g transform="matrix(363.6363636363636,0.0,0.0,363.6363636363636,400.00000000000017,45.45454545454547)"><g stroke="rgb(0,0,0)" stroke-opacity="0.0" fill="rgb(0,0,0)" fill-opacity="0.0" stroke-width="1.0e-2" stroke-linecap="butt" stroke-linejoin="miter" font-size="1.0em" stroke-miterlimit="10.0"><path d="M -0.14028385325539702,0.5 l -2.2204460492503132e-17,-0.2 h -0.2 l -2.2204460492503132e-17,0.2 h 0.20000000000000007 Z" /></g></g><g transform="matrix(363.6363636363636,0.0,0.0,363.6363636363636,400.00000000000017,45.45454545454547)"><g stroke="rgb(0,0,0)" stroke-opacity="1.0" fill="rgb(255,0,0)" fill-opacity="1.0" stroke-width="0.0" stroke-linecap="butt" stroke-linejoin="miter" font-size="1.0em" stroke-miterlimit="10.0"><path d="M -0.23628385325539705,0.4 c -4.440892098500626e-19,-2.209138999323173e-3 -1.7908610006768261e-3,-3.999999999999999e-3 -3.999999999999999e-3 -4.0e-3c -2.209138999323173e-3,3.088229270976643e-19 -3.999999999999999e-3,1.7908610006768261e-3 -4.0e-3 3.999999999999999e-3c 1.73556644345266e-19,2.209138999323173e-3 1.790861000676826e-3,3.999999999999999e-3 3.999999999999998e-3 4.0e-3c 2.209138999323173e-3,-3.829036159286771e-20 3.999999999999999e-3,-1.7908610006768255e-3 4.000000000000002e-3 -3.999999999999999e-3Z" /></g></g><g transform="matrix(363.6363636363636,0.0,0.0,363.6363636363636,400.00000000000017,45.45454545454547)"><g stroke="rgb(0,0,0)" stroke-opacity="1.0" fill="rgb(0,0,0)" fill-opacity="1.0" stroke-width="1.0e-2" stroke-linecap="butt" stroke-linejoin="miter" font-size="1.0em" stroke-miterlimit="10.0"><text transform="matrix(0.1,0.0,0.0,0.1,0.3798580733723013,0.4)" dominant-baseline="middle" text-anchor="middle" stroke="none">B</text></g></g><g transform="matrix(363.6363636363636,0.0,0.0,363.6363636363636,400.00000000000017,45.45454545454547)"><g stroke="rgb(0,0,0)" stroke-opacity="1.0" fill="rgb(255,0,0)" fill-opacity="0.5" stroke-width="1.0e-2" stroke-linecap="butt" stroke-linejoin="miter" font-size="1.0em" stroke-miterlimit="10.0"><path d="M 0.9999999999999998,0.5 l -1.3769916909549504e-16,-0.2 h -1.2402838532553968 l -1.3769916909549504e-16,0.2 h 1.2402838532553973 Z" /></g></g><g transform="matrix(363.6363636363636,0.0,0.0,363.6363636363636,400.00000000000017,45.45454545454547)"><g stroke="rgb(0,0,0)" stroke-opacity="0.0" fill="rgb(0,0,0)" fill-opacity="0.0" stroke-width="1.0e-2" stroke-linecap="butt" stroke-linejoin="miter" font-size="1.0em" stroke-miterlimit="10.0"><path d="M 0.2598896058779817,0.2 c -1.1102230246251566e-17,-5.5228474983079326e-2 -4.477152501692066e-2,-9.999999999999998e-2 -9.999999999999998e-2 -0.1c -5.5228474983079326e-2,7.720573177441608e-18 -9.999999999999998e-2,4.477152501692065e-2 -0.1 9.999999999999998e-2c 4.33891610863165e-18,5.5228474983079326e-2 4.4771525016920645e-2,9.999999999999998e-2 9.999999999999996e-2 0.1c 5.5228474983079326e-2,-9.572590398216926e-19 9.999999999999998e-2,-4.477152501692064e-2 0.10000000000000002 -9.999999999999998e-2Z" /></g></g><g transform="matrix(363.6363636363636,0.0,0.0,363.6363636363636,400.00000000000017,45.45454545454547)"><g stroke="rgb(0,0,0)" stroke-opacity="0.0" fill="rgb(0,0,0)" fill-opacity="0.0" stroke-width="1.0e-2" stroke-linecap="butt" stroke-linejoin="miter" font-size="1.0em" stroke-miterlimit="10.0"><path d="M 0.25988960587798177,0.30000000000000004 l -2.2204460492503132e-17,-0.2 h -0.2 l -2.2204460492503132e-17,0.2 h 0.20000000000000007 Z" /></g></g><g transform="matrix(363.6363636363636,0.0,0.0,363.6363636363636,400.00000000000017,45.45454545454547)"><g stroke="rgb(0,0,0)" stroke-opacity="1.0" fill="rgb(255,0,0)" fill-opacity="1.0" stroke-width="0.0" stroke-linecap="butt" stroke-linejoin="miter" font-size="1.0em" stroke-miterlimit="10.0"><path d="M 0.16388960587798174,0.2 c -4.440892098500626e-19,-2.209138999323173e-3 -1.7908610006768261e-3,-3.999999999999999e-3 -3.999999999999999e-3 -4.0e-3c -2.209138999323173e-3,3.088229270976643e-19 -3.999999999999999e-3,1.7908610006768261e-3 -4.0e-3 3.999999999999999e-3c 1.73556644345266e-19,2.209138999323173e-3 1.790861000676826e-3,3.999999999999999e-3 3.999999999999998e-3 4.0e-3c 2.209138999323173e-3,-3.829036159286771e-20 3.999999999999999e-3,-1.7908610006768255e-3 4.000000000000002e-3 -3.999999999999999e-3Z" /></g></g><g transform="matrix(363.6363636363636,0.0,0.0,363.6363636363636,400.00000000000017,45.45454545454547)"><g stroke="rgb(0,0,0)" stroke-opacity="0.0" fill="rgb(0,0,0)" fill-opacity="0.0" stroke-width="1.0e-2" stroke-linecap="butt" stroke-linejoin="miter" font-size="1.0em" stroke-miterlimit="10.0"><path d="M -0.9000000000000005,0.2 c -1.1102230246251566e-17,-5.5228474983079326e-2 -4.477152501692066e-2,-9.999999999999998e-2 -9.999999999999998e-2 -0.1c -5.5228474983079326e-2,7.720573177441608e-18 -9.999999999999998e-2,4.477152501692065e-2 -0.1 9.999999999999998e-2c 4.33891610863165e-18,5.5228474983079326e-2 4.4771525016920645e-2,9.999999999999998e-2 9.999999999999996e-2 0.1c 5.5228474983079326e-2,-9.572590398216926e-19 9.999999999999998e-2,-4.477152501692064e-2 0.10000000000000002 -9.999999999999998e-2Z" /></g></g><g transform="matrix(363.6363636363636,0.0,0.0,363.6363636363636,400.00000000000017,45.45454545454547)"><g stroke="rgb(0,0,0)" stroke-opacity="0.0" fill="rgb(0,0,0)" fill-opacity="0.0" stroke-width="1.0e-2" stroke-linecap="butt" stroke-linejoin="miter" font-size="1.0em" stroke-miterlimit="10.0"><path d="M -0.9000000000000004,0.30000000000000004 l -2.2204460492503132e-17,-0.2 h -0.2 l -2.2204460492503132e-17,0.2 h 0.20000000000000007 Z" /></g></g><g transform="matrix(363.6363636363636,0.0,0.0,363.6363636363636,400.00000000000017,45.45454545454547)"><g stroke="rgb(0,0,0)" stroke-opacity="1.0" fill="rgb(255,0,0)" fill-opacity="1.0" stroke-width="0.0" stroke-linecap="butt" stroke-linejoin="miter" font-size="1.0em" stroke-miterlimit="10.0"><path d="M -0.9960000000000004,0.2 c -4.440892098500626e-19,-2.209138999323173e-3 -1.7908610006768261e-3,-3.999999999999999e-3 -3.999999999999999e-3 -4.0e-3c -2.209138999323173e-3,3.088229270976643e-19 -3.999999999999999e-3,1.7908610006768261e-3 -4.0e-3 3.999999999999999e-3c 1.73556644345266e-19,2.209138999323173e-3 1.790861000676826e-3,3.999999999999999e-3 3.999999999999998e-3 4.0e-3c 2.209138999323173e-3,-3.829036159286771e-20 3.999999999999999e-3,-1.7908610006768255e-3 4.000000000000002e-3 -3.999999999999999e-3Z" /></g></g><g transform="matrix(363.6363636363636,0.0,0.0,363.6363636363636,400.00000000000017,45.45454545454547)"><g stroke="rgb(0,0,0)" stroke-opacity="1.0" fill="rgb(0,0,0)" fill-opacity="1.0" stroke-width="1.0e-2" stroke-linecap="butt" stroke-linejoin="miter" font-size="1.0em" stroke-miterlimit="10.0"><text transform="matrix(0.1,0.0,0.0,0.1,-0.42005519706100936,0.2)" dominant-baseline="middle" text-anchor="middle" stroke="none">A</text></g></g><g transform="matrix(363.6363636363636,0.0,0.0,363.6363636363636,400.00000000000017,45.45454545454547)"><g stroke="rgb(0,0,0)" stroke-opacity="1.0" fill="rgb(255,0,0)" fill-opacity="0.5" stroke-width="1.0e-2" stroke-linecap="butt" stroke-linejoin="miter" font-size="1.0em" stroke-miterlimit="10.0"><path d="M 0.15988960587798184,0.30000000000000004 l -1.287736146469134e-16,-0.2 h -1.1598896058779822 l -1.287736146469134e-16,0.2 h 1.1598896058779826 Z" /></g></g><g transform="matrix(363.6363636363636,0.0,0.0,363.6363636363636,400.00000000000017,45.45454545454547)"><g stroke="rgb(0,0,0)" stroke-opacity="0.0" fill="rgb(0,0,0)" fill-opacity="0.0" stroke-width="1.0e-2" stroke-linecap="butt" stroke-linejoin="miter" font-size="1.0em" stroke-miterlimit="10.0"><path d="M 1.0000000000000002,0.1 l -2.220446049250313e-16,-0.2 h -2.0 l -2.220446049250313e-16,0.2 h 2.0 Z" /></g></g><g transform="matrix(363.6363636363636,0.0,0.0,363.6363636363636,400.00000000000017,45.45454545454547)"><g stroke="rgb(0,0,0)" stroke-opacity="1.0" fill="rgb(192,192,192)" fill-opacity="1.0" stroke-width="1.0e-2" stroke-linecap="butt" stroke-linejoin="miter" font-size="1.0em" stroke-miterlimit="10.0"><path d="M 1.0049999999999994,-7.500000000000001e-2 l -1.1102230246251568e-18,-5.0e-2 h -1.0000000000000002e-2 l -1.1102230246251568e-18,5.0e-2 h 1.0000000000000005e-2 Z" /></g></g><g transform="matrix(363.6363636363636,0.0,0.0,363.6363636363636,400.00000000000017,45.45454545454547)"><g stroke="rgb(0,0,0)" stroke-opacity="1.0" fill="rgb(192,192,192)" fill-opacity="1.0" stroke-width="1.0e-2" stroke-linecap="butt" stroke-linejoin="miter" font-size="1.0em" stroke-miterlimit="10.0"><path d="M 0.8049999999999996,-7.500000000000001e-2 l -1.1102230246251568e-18,-5.0e-2 h -1.0000000000000002e-2 l -1.1102230246251568e-18,5.0e-2 h 1.0000000000000005e-2 Z" /></g></g><g transform="matrix(363.6363636363636,0.0,0.0,363.6363636363636,400.00000000000017,45.45454545454547)"><g stroke="rgb(0,0,0)" stroke-opacity="1.0" fill="rgb(192,192,192)" fill-opacity="1.0" stroke-width="1.0e-2" stroke-linecap="butt" stroke-linejoin="miter" font-size="1.0em" stroke-miterlimit="10.0"><path d="M 0.6049999999999996,-7.500000000000001e-2 l -1.1102230246251568e-18,-5.0e-2 h -1.0000000000000002e-2 l -1.1102230246251568e-18,5.0e-2 h 1.0000000000000005e-2 Z" /></g></g><g transform="matrix(363.6363636363636,0.0,0.0,363.6363636363636,400.00000000000017,45.45454545454547)"><g stroke="rgb(0,0,0)" stroke-opacity="1.0" fill="rgb(192,192,192)" fill-opacity="1.0" stroke-width="1.0e-2" stroke-linecap="butt" stroke-linejoin="miter" font-size="1.0em" stroke-miterlimit="10.0"><path d="M 0.4049999999999997,-7.500000000000001e-2 l -1.1102230246251568e-18,-5.0e-2 h -1.0000000000000002e-2 l -1.1102230246251568e-18,5.0e-2 h 1.0000000000000005e-2 Z" /></g></g><g transform="matrix(363.6363636363636,0.0,0.0,363.6363636363636,400.00000000000017,45.45454545454547)"><g stroke="rgb(0,0,0)" stroke-opacity="1.0" fill="rgb(192,192,192)" fill-opacity="1.0" stroke-width="1.0e-2" stroke-linecap="butt" stroke-linejoin="miter" font-size="1.0em" stroke-miterlimit="10.0"><path d="M 0.20499999999999974,-7.500000000000001e-2 l -1.1102230246251568e-18,-5.0e-2 h -1.0000000000000002e-2 l -1.1102230246251568e-18,5.0e-2 h 1.0000000000000005e-2 Z" /></g></g><g transform="matrix(363.6363636363636,0.0,0.0,363.6363636363636,400.00000000000017,45.45454545454547)"><g stroke="rgb(0,0,0)" stroke-opacity="1.0" fill="rgb(192,192,192)" fill-opacity="1.0" stroke-width="1.0e-2" stroke-linecap="butt" stroke-linejoin="miter" font-size="1.0em" stroke-miterlimit="10.0"><path d="M 4.99999999999978e-3,-7.500000000000001e-2 l -1.1102230246251568e-18,-5.0e-2 h -1.0000000000000002e-2 l -1.1102230246251568e-18,5.0e-2 h 1.0000000000000005e-2 Z" /></g></g><g transform="matrix(363.6363636363636,0.0,0.0,363.6363636363636,400.00000000000017,45.45454545454547)"><g stroke="rgb(0,0,0)" stroke-opacity="1.0" fill="rgb(192,192,192)" fill-opacity="1.0" stroke-width="1.0e-2" stroke-linecap="butt" stroke-linejoin="miter" font-size="1.0em" stroke-miterlimit="10.0"><path d="M -0.19500000000000017,-7.500000000000001e-2 l -1.1102230246251568e-18,-5.0e-2 h -1.0000000000000002e-2 l -1.1102230246251568e-18,5.0e-2 h 1.0000000000000005e-2 Z" /></g></g><g transform="matrix(363.6363636363636,0.0,0.0,363.6363636363636,400.00000000000017,45.45454545454547)"><g stroke="rgb(0,0,0)" stroke-opacity="1.0" fill="rgb(192,192,192)" fill-opacity="1.0" stroke-width="1.0e-2" stroke-linecap="butt" stroke-linejoin="miter" font-size="1.0em" stroke-miterlimit="10.0"><path d="M -0.39500000000000013,-7.500000000000001e-2 l -1.1102230246251568e-18,-5.0e-2 h -1.0000000000000002e-2 l -1.1102230246251568e-18,5.0e-2 h 1.0000000000000005e-2 Z" /></g></g><g transform="matrix(363.6363636363636,0.0,0.0,363.6363636363636,400.00000000000017,45.45454545454547)"><g stroke="rgb(0,0,0)" stroke-opacity="1.0" fill="rgb(192,192,192)" fill-opacity="1.0" stroke-width="1.0e-2" stroke-linecap="butt" stroke-linejoin="miter" font-size="1.0em" stroke-miterlimit="10.0"><path d="M -0.5950000000000001,-7.500000000000001e-2 l -1.1102230246251568e-18,-5.0e-2 h -1.0000000000000002e-2 l -1.1102230246251568e-18,5.0e-2 h 1.0000000000000005e-2 Z" /></g></g><g transform="matrix(363.6363636363636,0.0,0.0,363.6363636363636,400.00000000000017,45.45454545454547)"><g stroke="rgb(0,0,0)" stroke-opacity="1.0" fill="rgb(192,192,192)" fill-opacity="1.0" stroke-width="1.0e-2" stroke-linecap="butt" stroke-linejoin="miter" font-size="1.0em" stroke-miterlimit="10.0"><path d="M -0.795,-7.500000000000001e-2 l -1.1102230246251568e-18,-5.0e-2 h -1.0000000000000002e-2 l -1.1102230246251568e-18,5.0e-2 h 1.0000000000000005e-2 Z" /></g></g><g transform="matrix(363.6363636363636,0.0,0.0,363.6363636363636,400.00000000000017,45.45454545454547)"><g stroke="rgb(0,0,0)" stroke-opacity="1.0" fill="rgb(192,192,192)" fill-opacity="1.0" stroke-width="1.0e-2" stroke-linecap="butt" stroke-linejoin="miter" font-size="1.0em" stroke-miterlimit="10.0"><path d="M -0.995,-7.500000000000001e-2 l -1.1102230246251568e-18,-5.0e-2 h -1.0000000000000002e-2 l -1.1102230246251568e-18,5.0e-2 h 1.0000000000000005e-2 Z" /></g></g><g transform="matrix(363.6363636363636,0.0,0.0,363.6363636363636,400.00000000000017,45.45454545454547)"><g stroke="rgb(0,0,0)" stroke-opacity="1.0" fill="rgb(0,0,0)" fill-opacity="1.0" stroke-width="1.0e-2" stroke-linecap="butt" stroke-linejoin="miter" font-size="1.0em" stroke-miterlimit="10.0"><text transform="matrix(5.0e-2,0.0,0.0,5.0e-2,0.9999999999999996,0.0)" dominant-baseline="middle" text-anchor="middle" stroke="none">3.41%</text></g></g><g transform="matrix(363.6363636363636,0.0,0.0,363.6363636363636,400.00000000000017,45.45454545454547)"><g stroke="rgb(0,0,0)" stroke-opacity="1.0" fill="rgb(0,0,0)" fill-opacity="1.0" stroke-width="1.0e-2" stroke-linecap="butt" stroke-linejoin="miter" font-size="1.0em" stroke-miterlimit="10.0"><text transform="matrix(5.0e-2,0.0,0.0,5.0e-2,0.7999999999999996,0.0)" dominant-baseline="middle" text-anchor="middle" stroke="none">3.31%</text></g></g><g transform="matrix(363.6363636363636,0.0,0.0,363.6363636363636,400.00000000000017,45.45454545454547)"><g stroke="rgb(0,0,0)" stroke-opacity="1.0" fill="rgb(0,0,0)" fill-opacity="1.0" stroke-width="1.0e-2" stroke-linecap="butt" stroke-linejoin="miter" font-size="1.0em" stroke-miterlimit="10.0"><text transform="matrix(5.0e-2,0.0,0.0,5.0e-2,0.5999999999999996,0.0)" dominant-baseline="middle" text-anchor="middle" stroke="none">3.21%</text></g></g><g transform="matrix(363.6363636363636,0.0,0.0,363.6363636363636,400.00000000000017,45.45454545454547)"><g stroke="rgb(0,0,0)" stroke-opacity="1.0" fill="rgb(0,0,0)" fill-opacity="1.0" stroke-width="1.0e-2" stroke-linecap="butt" stroke-linejoin="miter" font-size="1.0em" stroke-miterlimit="10.0"><text transform="matrix(5.0e-2,0.0,0.0,5.0e-2,0.3999999999999997,0.0)" dominant-baseline="middle" text-anchor="middle" stroke="none">3.11%</text></g></g><g transform="matrix(363.6363636363636,0.0,0.0,363.6363636363636,400.00000000000017,45.45454545454547)"><g stroke="rgb(0,0,0)" stroke-opacity="1.0" fill="rgb(0,0,0)" fill-opacity="1.0" stroke-width="1.0e-2" stroke-linecap="butt" stroke-linejoin="miter" font-size="1.0em" stroke-miterlimit="10.0"><text transform="matrix(5.0e-2,0.0,0.0,5.0e-2,0.19999999999999973,0.0)" dominant-baseline="middle" text-anchor="middle" stroke="none">3.01%</text></g></g><g transform="matrix(363.6363636363636,0.0,0.0,363.6363636363636,400.00000000000017,45.45454545454547)"><g stroke="rgb(0,0,0)" stroke-opacity="1.0" fill="rgb(0,0,0)" fill-opacity="1.0" stroke-width="1.0e-2" stroke-linecap="butt" stroke-linejoin="miter" font-size="1.0em" stroke-miterlimit="10.0"><text transform="matrix(5.0e-2,0.0,0.0,5.0e-2,-2.220446049250313e-16,0.0)" dominant-baseline="middle" text-anchor="middle" stroke="none">2.91%</text></g></g><g transform="matrix(363.6363636363636,0.0,0.0,363.6363636363636,400.00000000000017,45.45454545454547)"><g stroke="rgb(0,0,0)" stroke-opacity="1.0" fill="rgb(0,0,0)" fill-opacity="1.0" stroke-width="1.0e-2" stroke-linecap="butt" stroke-linejoin="miter" font-size="1.0em" stroke-miterlimit="10.0"><text transform="matrix(5.0e-2,0.0,0.0,5.0e-2,-0.20000000000000018,0.0)" dominant-baseline="middle" text-anchor="middle" stroke="none">2.81%</text></g></g><g transform="matrix(363.6363636363636,0.0,0.0,363.6363636363636,400.00000000000017,45.45454545454547)"><g stroke="rgb(0,0,0)" stroke-opacity="1.0" fill="rgb(0,0,0)" fill-opacity="1.0" stroke-width="1.0e-2" stroke-linecap="butt" stroke-linejoin="miter" font-size="1.0em" stroke-miterlimit="10.0"><text transform="matrix(5.0e-2,0.0,0.0,5.0e-2,-0.40000000000000013,0.0)" dominant-baseline="middle" text-anchor="middle" stroke="none">2.71%</text></g></g><g transform="matrix(363.6363636363636,0.0,0.0,363.6363636363636,400.00000000000017,45.45454545454547)"><g stroke="rgb(0,0,0)" stroke-opacity="1.0" fill="rgb(0,0,0)" fill-opacity="1.0" stroke-width="1.0e-2" stroke-linecap="butt" stroke-linejoin="miter" font-size="1.0em" stroke-miterlimit="10.0"><text transform="matrix(5.0e-2,0.0,0.0,5.0e-2,-0.6000000000000001,0.0)" dominant-baseline="middle" text-anchor="middle" stroke="none">2.61%</text></g></g><g transform="matrix(363.6363636363636,0.0,0.0,363.6363636363636,400.00000000000017,45.45454545454547)"><g stroke="rgb(0,0,0)" stroke-opacity="1.0" fill="rgb(0,0,0)" fill-opacity="1.0" stroke-width="1.0e-2" stroke-linecap="butt" stroke-linejoin="miter" font-size="1.0em" stroke-miterlimit="10.0"><text transform="matrix(5.0e-2,0.0,0.0,5.0e-2,-0.8,0.0)" dominant-baseline="middle" text-anchor="middle" stroke="none">2.51%</text></g></g><g transform="matrix(363.6363636363636,0.0,0.0,363.6363636363636,400.00000000000017,45.45454545454547)"><g stroke="rgb(0,0,0)" stroke-opacity="1.0" fill="rgb(0,0,0)" fill-opacity="1.0" stroke-width="1.0e-2" stroke-linecap="butt" stroke-linejoin="miter" font-size="1.0em" stroke-miterlimit="10.0"><text transform="matrix(5.0e-2,0.0,0.0,5.0e-2,-1.0,0.0)" dominant-baseline="middle" text-anchor="middle" stroke="none">2.41%</text></g></g></g></svg>